<?xml version="1.0" encoding="utf-8" standalone="no"?>
<!DOCTYPE svg PUBLIC "-//W3C//DTD SVG 1.1//EN"
  "http://www.w3.org/Graphics/SVG/1.1/DTD/svg11.dtd">
<svg xmlns:xlink="http://www.w3.org/1999/xlink" width="1012.4pt" height="508.4pt" viewBox="0 0 1012.4 508.4" xmlns="http://www.w3.org/2000/svg" version="1.1">
 <metadata>
  <rdf:RDF xmlns:dc="http://purl.org/dc/elements/1.1/" xmlns:cc="http://creativecommons.org/ns#" xmlns:rdf="http://www.w3.org/1999/02/22-rdf-syntax-ns#">
   <cc:Work>
    <dc:type rdf:resource="http://purl.org/dc/dcmitype/StillImage"/>
    <dc:date>2026-03-31T05:12:29.781472</dc:date>
    <dc:format>image/svg+xml</dc:format>
    <dc:creator>
     <cc:Agent>
      <dc:title>Matplotlib v3.10.1, https://matplotlib.org/</dc:title>
     </cc:Agent>
    </dc:creator>
   </cc:Work>
  </rdf:RDF>
 </metadata>
 <defs>
  <style type="text/css">*{stroke-linejoin: round; stroke-linecap: butt}</style>
 </defs>
 <g id="figure_1">
  <g id="patch_1">
   <path d="M 0 508.4 
L 1012.4 508.4 
L 1012.4 0 
L 0 0 
z
" style="fill: #ffffff"/>
  </g>
  <g id="axes_1">
   <g id="patch_2">
    <path d="M 78.485714 211.857143 
L 221.057143 211.857143 
Q 228.185714 211.857143 228.185714 204.8 
L 228.185714 120.114286 
Q 228.185714 113.057143 221.057143 113.057143 
L 78.485714 113.057143 
Q 71.357143 113.057143 71.357143 120.114286 
L 71.357143 204.8 
Q 71.357143 211.857143 78.485714 211.857143 
z
" clip-path="url(#pe7c706b249)" style="fill: #ffffff; stroke: #2c3e50; stroke-width: 1.5; stroke-linejoin: miter"/>
   </g>
   <g id="patch_3">
    <path d="M 278.085714 211.857143 
L 392.142857 211.857143 
Q 399.271429 211.857143 399.271429 204.8 
L 399.271429 120.114286 
Q 399.271429 113.057143 392.142857 113.057143 
L 278.085714 113.057143 
Q 270.957143 113.057143 270.957143 120.114286 
L 270.957143 204.8 
Q 270.957143 211.857143 278.085714 211.857143 
z
" clip-path="url(#pe7c706b249)" style="fill: #ecf0f1; stroke: #2c3e50; stroke-width: 1.5; stroke-linejoin: miter"/>
   </g>
   <g id="patch_4">
    <path d="M 449.171429 211.857143 
L 606 211.857143 
Q 613.128571 211.857143 613.128571 204.8 
L 613.128571 120.114286 
Q 613.128571 113.057143 606 113.057143 
L 449.171429 113.057143 
Q 442.042857 113.057143 442.042857 120.114286 
L 442.042857 204.8 
Q 442.042857 211.857143 449.171429 211.857143 
z
" clip-path="url(#pe7c706b249)" style="fill: #ecf0f1; stroke: #2c3e50; stroke-width: 1.5; stroke-linejoin: miter"/>
   </g>
   <g id="patch_5">
    <path d="M 663.028571 211.857143 
L 819.857143 211.857143 
Q 826.985714 211.857143 826.985714 204.8 
L 826.985714 120.114286 
Q 826.985714 113.057143 819.857143 113.057143 
L 663.028571 113.057143 
Q 655.9 113.057143 655.9 120.114286 
L 655.9 204.8 
Q 655.9 211.857143 663.028571 211.857143 
z
" clip-path="url(#pe7c706b249)" style="fill: #ecf0f1; stroke: #2c3e50; stroke-width: 1.5; stroke-linejoin: miter"/>
   </g>
   <g id="patch_6">
    <path d="M 862.628571 211.857143 
L 976.685714 211.857143 
Q 983.814286 211.857143 983.814286 204.8 
L 983.814286 120.114286 
Q 983.814286 113.057143 976.685714 113.057143 
L 862.628571 113.057143 
Q 855.5 113.057143 855.5 120.114286 
L 855.5 204.8 
Q 855.5 211.857143 862.628571 211.857143 
z
" clip-path="url(#pe7c706b249)" style="fill: #ffffff; stroke: #2c3e50; stroke-width: 1.5; stroke-linejoin: miter"/>
   </g>
   <g id="patch_7">
    <path d="M 260.264286 369.231429 
L 502.635714 369.231429 
Q 508.338571 369.231429 508.338571 363.585714 
L 508.338571 257.728571 
Q 508.338571 252.082857 502.635714 252.082857 
L 260.264286 252.082857 
Q 254.561429 252.082857 254.561429 257.728571 
L 254.561429 363.585714 
Q 254.561429 369.231429 260.264286 369.231429 
z
" clip-path="url(#pe7c706b249)" style="fill: #dceefb; stroke: #2980b9; stroke-width: 1.5; stroke-linejoin: miter"/>
   </g>
   <g id="patch_8">
    <path d="M 509.764286 369.231429 
L 752.135714 369.231429 
Q 757.838571 369.231429 757.838571 363.585714 
L 757.838571 257.728571 
Q 757.838571 252.082857 752.135714 252.082857 
L 509.764286 252.082857 
Q 504.061429 252.082857 504.061429 257.728571 
L 504.061429 363.585714 
Q 504.061429 369.231429 509.764286 369.231429 
z
" clip-path="url(#pe7c706b249)" style="fill: #d5f5e3; stroke: #27ae60; stroke-width: 1.5; stroke-linejoin: miter"/>
   </g>
   <g id="patch_9">
    <path d="M 260.264286 482.145714 
L 502.635714 482.145714 
Q 508.338571 482.145714 508.338571 476.5 
L 508.338571 370.642857 
Q 508.338571 364.997143 502.635714 364.997143 
L 260.264286 364.997143 
Q 254.561429 364.997143 254.561429 370.642857 
L 254.561429 476.5 
Q 254.561429 482.145714 260.264286 482.145714 
z
" clip-path="url(#pe7c706b249)" style="fill: #fef5e7; stroke: #f39c12; stroke-width: 1.5; stroke-linejoin: miter"/>
   </g>
   <g id="patch_10">
    <path d="M 509.764286 482.145714 
L 752.135714 482.145714 
Q 757.838571 482.145714 757.838571 476.5 
L 757.838571 370.642857 
Q 757.838571 364.997143 752.135714 364.997143 
L 509.764286 364.997143 
Q 504.061429 364.997143 504.061429 370.642857 
L 504.061429 476.5 
Q 504.061429 482.145714 509.764286 482.145714 
z
" clip-path="url(#pe7c706b249)" style="fill: #fadbd8; stroke: #e74c3c; stroke-width: 1.5; stroke-linejoin: miter"/>
   </g>
   <g id="text_1">
    <!-- THE INTERACTION ATOM -->
    <g style="fill: #2c3e50" transform="translate(398.433437 48.754196) scale(0.18 -0.18)">
     <defs>
      <path id="SegoeUI-Bold-54" d="M 3659 3659 
L 2381 3659 
L 2381 0 
L 1369 0 
L 1369 3659 
L 97 3659 
L 97 4481 
L 3659 4481 
L 3659 3659 
z
" transform="scale(0.015625)"/>
      <path id="SegoeUI-Bold-48" d="M 4391 0 
L 3378 0 
L 3378 1825 
L 1522 1825 
L 1522 0 
L 513 0 
L 513 4481 
L 1522 4481 
L 1522 2694 
L 3378 2694 
L 3378 4481 
L 4391 4481 
L 4391 0 
z
" transform="scale(0.015625)"/>
      <path id="SegoeUI-Bold-45" d="M 3200 0 
L 513 0 
L 513 4481 
L 3097 4481 
L 3097 3659 
L 1522 3659 
L 1522 2663 
L 2988 2663 
L 2988 1844 
L 1522 1844 
L 1522 819 
L 3200 819 
L 3200 0 
z
" transform="scale(0.015625)"/>
      <path id="SegoeUI-Bold-20" transform="scale(0.015625)"/>
      <path id="SegoeUI-Bold-49" d="M 1522 0 
L 513 0 
L 513 4481 
L 1522 4481 
L 1522 0 
z
" transform="scale(0.015625)"/>
      <path id="SegoeUI-Bold-4e" d="M 4544 0 
L 3525 0 
L 1678 2816 
Q 1516 3063 1453 3188 
L 1441 3188 
Q 1466 2950 1466 2463 
L 1466 0 
L 513 0 
L 513 4481 
L 1600 4481 
L 3378 1753 
Q 3500 1569 3603 1388 
L 3616 1388 
Q 3591 1544 3591 2003 
L 3591 4481 
L 4544 4481 
L 4544 0 
z
" transform="scale(0.015625)"/>
      <path id="SegoeUI-Bold-52" d="M 4272 0 
L 3113 0 
L 2416 1153 
Q 2338 1284 2266 1387 
Q 2194 1491 2120 1564 
Q 2047 1638 1967 1677 
Q 1888 1716 1794 1716 
L 1522 1716 
L 1522 0 
L 513 0 
L 513 4481 
L 2113 4481 
Q 3744 4481 3744 3263 
Q 3744 3028 3672 2829 
Q 3600 2631 3469 2472 
Q 3338 2313 3152 2197 
Q 2966 2081 2738 2016 
L 2738 2003 
Q 2838 1972 2931 1901 
Q 3025 1831 3112 1737 
Q 3200 1644 3279 1536 
Q 3359 1428 3425 1325 
L 4272 0 
z
M 1522 3725 
L 1522 2478 
L 1959 2478 
Q 2284 2478 2481 2666 
Q 2681 2856 2681 3138 
Q 2681 3725 1978 3725 
L 1522 3725 
z
" transform="scale(0.015625)"/>
      <path id="SegoeUI-Bold-41" d="M 4453 0 
L 3353 0 
L 3034 997 
L 1441 997 
L 1125 0 
L 31 0 
L 1663 4481 
L 2859 4481 
L 4453 0 
z
M 2803 1772 
L 2322 3278 
Q 2269 3447 2247 3681 
L 2222 3681 
Q 2206 3484 2144 3291 
L 1656 1772 
L 2803 1772 
z
" transform="scale(0.015625)"/>
      <path id="SegoeUI-Bold-43" d="M 3725 159 
Q 3234 -78 2444 -78 
Q 1413 -78 822 528 
Q 231 1134 231 2144 
Q 231 3219 895 3887 
Q 1559 4556 2619 4556 
Q 3275 4556 3725 4391 
L 3725 3419 
Q 3275 3688 2700 3688 
Q 2069 3688 1681 3291 
Q 1294 2894 1294 2216 
Q 1294 1566 1659 1180 
Q 2025 794 2644 794 
Q 3234 794 3725 1081 
L 3725 159 
z
" transform="scale(0.015625)"/>
      <path id="SegoeUI-Bold-4f" d="M 2406 -78 
Q 1444 -78 837 548 
Q 231 1175 231 2181 
Q 231 3244 847 3900 
Q 1463 4556 2478 4556 
Q 3438 4556 4030 3928 
Q 4622 3300 4622 2272 
Q 4622 1216 4008 569 
Q 3394 -78 2406 -78 
z
M 2450 3688 
Q 1919 3688 1606 3289 
Q 1294 2891 1294 2234 
Q 1294 1569 1606 1181 
Q 1919 794 2425 794 
Q 2947 794 3253 1170 
Q 3559 1547 3559 2216 
Q 3559 2913 3262 3300 
Q 2966 3688 2450 3688 
z
" transform="scale(0.015625)"/>
      <path id="SegoeUI-Bold-4d" d="M 5619 0 
L 4622 0 
L 4622 2681 
Q 4622 3116 4659 3641 
L 4634 3641 
Q 4556 3228 4494 3047 
L 3444 0 
L 2619 0 
L 1550 3016 
Q 1506 3138 1409 3641 
L 1381 3641 
Q 1422 2978 1422 2478 
L 1422 0 
L 513 0 
L 513 4481 
L 1991 4481 
L 2906 1825 
Q 3016 1506 3066 1184 
L 3084 1184 
Q 3169 1556 3263 1831 
L 4178 4481 
L 5619 4481 
L 5619 0 
z
" transform="scale(0.015625)"/>
     </defs>
     <use xlink:href="#SegoeUI-Bold-54"/>
     <use xlink:href="#SegoeUI-Bold-48" transform="translate(58.59375 0)"/>
     <use xlink:href="#SegoeUI-Bold-45" transform="translate(135.205078 0)"/>
     <use xlink:href="#SegoeUI-Bold-20" transform="translate(188.427734 0)"/>
     <use xlink:href="#SegoeUI-Bold-49" transform="translate(216.015625 0)"/>
     <use xlink:href="#SegoeUI-Bold-4e" transform="translate(247.705078 0)"/>
     <use xlink:href="#SegoeUI-Bold-54" transform="translate(326.708984 0)"/>
     <use xlink:href="#SegoeUI-Bold-45" transform="translate(385.302734 0)"/>
     <use xlink:href="#SegoeUI-Bold-52" transform="translate(438.525391 0)"/>
     <use xlink:href="#SegoeUI-Bold-41" transform="translate(503.808594 0)"/>
     <use xlink:href="#SegoeUI-Bold-43" transform="translate(572.621094 0)"/>
     <use xlink:href="#SegoeUI-Bold-54" transform="translate(635.023438 0)"/>
     <use xlink:href="#SegoeUI-Bold-49" transform="translate(693.617188 0)"/>
     <use xlink:href="#SegoeUI-Bold-4f" transform="translate(725.306641 0)"/>
     <use xlink:href="#SegoeUI-Bold-4e" transform="translate(801.136719 0)"/>
     <use xlink:href="#SegoeUI-Bold-20" transform="translate(880.140625 0)"/>
     <use xlink:href="#SegoeUI-Bold-41" transform="translate(907.728516 0)"/>
     <use xlink:href="#SegoeUI-Bold-54" transform="translate(971.041016 0)"/>
     <use xlink:href="#SegoeUI-Bold-4f" transform="translate(1025.884766 0)"/>
     <use xlink:href="#SegoeUI-Bold-4d" transform="translate(1101.714844 0)"/>
    </g>
   </g>
   <g id="text_2">
    <!-- Input → Signal → Relationship → Shape → Output -->
    <g style="fill: #bdc3c7" transform="translate(385.678672 71.80058) scale(0.11 -0.11)">
     <defs>
      <path id="SegoeUI-49" d="M 1113 0 
L 588 0 
L 588 4481 
L 1113 4481 
L 1113 0 
z
" transform="scale(0.015625)"/>
      <path id="SegoeUI-6e" d="M 3175 0 
L 2663 0 
L 2663 1825 
Q 2663 2844 1919 2844 
Q 1534 2844 1282 2555 
Q 1031 2266 1031 1825 
L 1031 0 
L 519 0 
L 519 3200 
L 1031 3200 
L 1031 2669 
L 1044 2669 
Q 1406 3275 2094 3275 
Q 2619 3275 2897 2936 
Q 3175 2597 3175 1956 
L 3175 0 
z
" transform="scale(0.015625)"/>
      <path id="SegoeUI-70" d="M 1044 463 
L 1031 463 
L 1031 -1472 
L 519 -1472 
L 519 3200 
L 1031 3200 
L 1031 2638 
L 1044 2638 
Q 1422 3275 2150 3275 
Q 2769 3275 3116 2845 
Q 3463 2416 3463 1694 
Q 3463 891 3072 408 
Q 2681 -75 2003 -75 
Q 1381 -75 1044 463 
z
M 1031 1753 
L 1031 1306 
Q 1031 909 1289 632 
Q 1547 356 1944 356 
Q 2409 356 2673 712 
Q 2938 1069 2938 1703 
Q 2938 2238 2691 2541 
Q 2444 2844 2022 2844 
Q 1575 2844 1303 2533 
Q 1031 2222 1031 1753 
z
" transform="scale(0.015625)"/>
      <path id="SegoeUI-75" d="M 3106 0 
L 2594 0 
L 2594 506 
L 2581 506 
Q 2263 -75 1594 -75 
Q 450 -75 450 1288 
L 450 3200 
L 959 3200 
L 959 1369 
Q 959 356 1734 356 
Q 2109 356 2351 632 
Q 2594 909 2594 1356 
L 2594 3200 
L 3106 3200 
L 3106 0 
z
" transform="scale(0.015625)"/>
      <path id="SegoeUI-74" d="M 2003 31 
Q 1822 -69 1525 -69 
Q 684 -69 684 869 
L 684 2763 
L 134 2763 
L 134 3200 
L 684 3200 
L 684 3981 
L 1197 4147 
L 1197 3200 
L 2003 3200 
L 2003 2763 
L 1197 2763 
L 1197 959 
Q 1197 638 1306 500 
Q 1416 363 1669 363 
Q 1863 363 2003 469 
L 2003 31 
z
" transform="scale(0.015625)"/>
      <path id="SegoeUI-20" transform="scale(0.015625)"/>
      <path id="SegoeUI-2192" d="M 722 2075 
L 4441 2075 
L 4056 2450 
L 4056 2913 
L 5056 1875 
L 5056 1863 
L 4056 825 
L 4056 1288 
L 4434 1656 
L 722 1656 
L 722 2075 
z
" transform="scale(0.015625)"/>
      <path id="SegoeUI-53" d="M 378 181 
L 378 800 
Q 484 706 632 631 
Q 781 556 945 504 
Q 1109 453 1275 425 
Q 1441 397 1581 397 
Q 2066 397 2305 576 
Q 2544 756 2544 1094 
Q 2544 1275 2464 1409 
Q 2384 1544 2243 1655 
Q 2103 1766 1911 1867 
Q 1719 1969 1497 2081 
Q 1263 2200 1059 2322 
Q 856 2444 706 2591 
Q 556 2738 470 2923 
Q 384 3109 384 3359 
Q 384 3666 518 3892 
Q 653 4119 872 4266 
Q 1091 4413 1370 4484 
Q 1650 4556 1941 4556 
Q 2603 4556 2906 4397 
L 2906 3806 
Q 2509 4081 1888 4081 
Q 1716 4081 1544 4045 
Q 1372 4009 1237 3928 
Q 1103 3847 1018 3719 
Q 934 3591 934 3406 
Q 934 3234 998 3109 
Q 1063 2984 1188 2881 
Q 1313 2778 1492 2681 
Q 1672 2584 1906 2469 
Q 2147 2350 2362 2219 
Q 2578 2088 2740 1928 
Q 2903 1769 2998 1575 
Q 3094 1381 3094 1131 
Q 3094 800 2964 570 
Q 2834 341 2614 197 
Q 2394 53 2106 -11 
Q 1819 -75 1500 -75 
Q 1394 -75 1237 -58 
Q 1081 -41 918 -8 
Q 756 25 611 73 
Q 466 122 378 181 
z
" transform="scale(0.015625)"/>
      <path id="SegoeUI-69" d="M 781 4013 
Q 644 4013 547 4106 
Q 450 4200 450 4344 
Q 450 4488 547 4583 
Q 644 4678 781 4678 
Q 922 4678 1020 4583 
Q 1119 4488 1119 4344 
Q 1119 4206 1020 4109 
Q 922 4013 781 4013 
z
M 1031 0 
L 519 0 
L 519 3200 
L 1031 3200 
L 1031 0 
z
" transform="scale(0.015625)"/>
      <path id="SegoeUI-67" d="M 3250 256 
Q 3250 -1506 1563 -1506 
Q 969 -1506 525 -1281 
L 525 -769 
Q 1066 -1069 1556 -1069 
Q 2738 -1069 2738 188 
L 2738 538 
L 2725 538 
Q 2359 -75 1625 -75 
Q 1028 -75 664 351 
Q 300 778 300 1497 
Q 300 2313 692 2794 
Q 1084 3275 1766 3275 
Q 2413 3275 2725 2756 
L 2738 2756 
L 2738 3200 
L 3250 3200 
L 3250 256 
z
M 2738 1447 
L 2738 1919 
Q 2738 2300 2480 2572 
Q 2222 2844 1838 2844 
Q 1363 2844 1094 2498 
Q 825 2153 825 1531 
Q 825 997 1083 676 
Q 1341 356 1766 356 
Q 2197 356 2467 662 
Q 2738 969 2738 1447 
z
" transform="scale(0.015625)"/>
      <path id="SegoeUI-61" d="M 2809 0 
L 2297 0 
L 2297 500 
L 2284 500 
Q 1950 -75 1300 -75 
Q 822 -75 551 178 
Q 281 431 281 850 
Q 281 1747 1338 1894 
L 2297 2028 
Q 2297 2844 1638 2844 
Q 1059 2844 594 2450 
L 594 2975 
Q 1066 3275 1681 3275 
Q 2809 3275 2809 2081 
L 2809 0 
z
M 2297 1619 
L 1525 1513 
Q 1169 1463 987 1336 
Q 806 1209 806 888 
Q 806 653 973 504 
Q 1141 356 1419 356 
Q 1800 356 2048 623 
Q 2297 891 2297 1300 
L 2297 1619 
z
" transform="scale(0.015625)"/>
      <path id="SegoeUI-6c" d="M 1031 0 
L 519 0 
L 519 4738 
L 1031 4738 
L 1031 0 
z
" transform="scale(0.015625)"/>
      <path id="SegoeUI-52" d="M 3800 0 
L 3175 0 
L 2425 1256 
Q 2322 1431 2225 1554 
Q 2128 1678 2026 1756 
Q 1925 1834 1808 1870 
Q 1691 1906 1544 1906 
L 1113 1906 
L 1113 0 
L 588 0 
L 588 4481 
L 1925 4481 
Q 2219 4481 2467 4407 
Q 2716 4334 2898 4184 
Q 3081 4034 3184 3811 
Q 3288 3588 3288 3288 
Q 3288 3053 3217 2858 
Q 3147 2663 3017 2509 
Q 2888 2356 2705 2248 
Q 2522 2141 2294 2081 
L 2294 2069 
Q 2406 2019 2489 1955 
Q 2572 1891 2647 1803 
Q 2722 1716 2795 1605 
Q 2869 1494 2959 1347 
L 3800 0 
z
M 1113 4006 
L 1113 2381 
L 1825 2381 
Q 2022 2381 2189 2440 
Q 2356 2500 2478 2611 
Q 2600 2722 2669 2883 
Q 2738 3044 2738 3244 
Q 2738 3603 2505 3804 
Q 2272 4006 1831 4006 
L 1113 4006 
z
" transform="scale(0.015625)"/>
      <path id="SegoeUI-65" d="M 3091 1472 
L 831 1472 
Q 844 938 1119 647 
Q 1394 356 1875 356 
Q 2416 356 2869 713 
L 2869 231 
Q 2447 -75 1753 -75 
Q 1075 -75 687 361 
Q 300 797 300 1588 
Q 300 2334 723 2804 
Q 1147 3275 1775 3275 
Q 2403 3275 2747 2869 
Q 3091 2463 3091 1741 
L 3091 1472 
z
M 2566 1906 
Q 2563 2350 2352 2597 
Q 2141 2844 1766 2844 
Q 1403 2844 1150 2584 
Q 897 2325 838 1906 
L 2566 1906 
z
" transform="scale(0.015625)"/>
      <path id="SegoeUI-6f" d="M 1856 -75 
Q 1147 -75 723 373 
Q 300 822 300 1563 
Q 300 2369 740 2822 
Q 1181 3275 1931 3275 
Q 2647 3275 3048 2834 
Q 3450 2394 3450 1613 
Q 3450 847 3017 386 
Q 2584 -75 1856 -75 
z
M 1894 2844 
Q 1400 2844 1112 2508 
Q 825 2172 825 1581 
Q 825 1013 1115 684 
Q 1406 356 1894 356 
Q 2391 356 2658 678 
Q 2925 1000 2925 1594 
Q 2925 2194 2658 2519 
Q 2391 2844 1894 2844 
z
" transform="scale(0.015625)"/>
      <path id="SegoeUI-73" d="M 325 116 
L 325 666 
Q 744 356 1247 356 
Q 1922 356 1922 806 
Q 1922 934 1864 1023 
Q 1806 1113 1707 1181 
Q 1609 1250 1476 1304 
Q 1344 1359 1191 1419 
Q 978 1503 817 1589 
Q 656 1675 548 1783 
Q 441 1891 386 2028 
Q 331 2166 331 2350 
Q 331 2575 434 2748 
Q 538 2922 709 3039 
Q 881 3156 1101 3215 
Q 1322 3275 1556 3275 
Q 1972 3275 2300 3131 
L 2300 2613 
Q 1947 2844 1488 2844 
Q 1344 2844 1228 2811 
Q 1113 2778 1030 2718 
Q 947 2659 901 2576 
Q 856 2494 856 2394 
Q 856 2269 901 2184 
Q 947 2100 1034 2034 
Q 1122 1969 1247 1916 
Q 1372 1863 1531 1800 
Q 1744 1719 1912 1633 
Q 2081 1547 2200 1439 
Q 2319 1331 2383 1190 
Q 2447 1050 2447 856 
Q 2447 619 2342 444 
Q 2238 269 2063 153 
Q 1888 38 1659 -18 
Q 1431 -75 1181 -75 
Q 688 -75 325 116 
z
" transform="scale(0.015625)"/>
      <path id="SegoeUI-68" d="M 3175 0 
L 2663 0 
L 2663 1844 
Q 2663 2844 1919 2844 
Q 1544 2844 1287 2555 
Q 1031 2266 1031 1813 
L 1031 0 
L 519 0 
L 519 4738 
L 1031 4738 
L 1031 2669 
L 1044 2669 
Q 1413 3275 2094 3275 
Q 3175 3275 3175 1972 
L 3175 0 
z
" transform="scale(0.015625)"/>
      <path id="SegoeUI-4f" d="M 2394 -75 
Q 1441 -75 867 553 
Q 294 1181 294 2188 
Q 294 3269 878 3912 
Q 1463 4556 2469 4556 
Q 3397 4556 3964 3931 
Q 4531 3306 4531 2297 
Q 4531 1200 3950 562 
Q 3369 -75 2394 -75 
z
M 2431 4081 
Q 1725 4081 1284 3572 
Q 844 3063 844 2234 
Q 844 1406 1273 901 
Q 1703 397 2394 397 
Q 3131 397 3556 878 
Q 3981 1359 3981 2225 
Q 3981 3113 3568 3597 
Q 3156 4081 2431 4081 
z
" transform="scale(0.015625)"/>
     </defs>
     <use xlink:href="#SegoeUI-49"/>
     <use xlink:href="#SegoeUI-6e" transform="translate(26.611328 0)"/>
     <use xlink:href="#SegoeUI-70" transform="translate(83.203125 0)"/>
     <use xlink:href="#SegoeUI-75" transform="translate(141.992188 0)"/>
     <use xlink:href="#SegoeUI-74" transform="translate(198.583984 0)"/>
     <use xlink:href="#SegoeUI-20" transform="translate(232.470703 0)"/>
     <use xlink:href="#SegoeUI-2192" transform="translate(259.863281 0)"/>
     <use xlink:href="#SegoeUI-20" transform="translate(346.142578 0)"/>
     <use xlink:href="#SegoeUI-53" transform="translate(373.535156 0)"/>
     <use xlink:href="#SegoeUI-69" transform="translate(426.660156 0)"/>
     <use xlink:href="#SegoeUI-67" transform="translate(450.878906 0)"/>
     <use xlink:href="#SegoeUI-6e" transform="translate(509.765625 0)"/>
     <use xlink:href="#SegoeUI-61" transform="translate(566.357422 0)"/>
     <use xlink:href="#SegoeUI-6c" transform="translate(617.236328 0)"/>
     <use xlink:href="#SegoeUI-20" transform="translate(641.455078 0)"/>
     <use xlink:href="#SegoeUI-2192" transform="translate(668.847656 0)"/>
     <use xlink:href="#SegoeUI-20" transform="translate(755.126953 0)"/>
     <use xlink:href="#SegoeUI-52" transform="translate(782.519531 0)"/>
     <use xlink:href="#SegoeUI-65" transform="translate(839.583984 0)"/>
     <use xlink:href="#SegoeUI-6c" transform="translate(891.878906 0)"/>
     <use xlink:href="#SegoeUI-61" transform="translate(916.097656 0)"/>
     <use xlink:href="#SegoeUI-74" transform="translate(966.976562 0)"/>
     <use xlink:href="#SegoeUI-69" transform="translate(1000.863281 0)"/>
     <use xlink:href="#SegoeUI-6f" transform="translate(1025.082031 0)"/>
     <use xlink:href="#SegoeUI-6e" transform="translate(1083.675781 0)"/>
     <use xlink:href="#SegoeUI-73" transform="translate(1140.267578 0)"/>
     <use xlink:href="#SegoeUI-68" transform="translate(1182.699219 0)"/>
     <use xlink:href="#SegoeUI-69" transform="translate(1239.291016 0)"/>
     <use xlink:href="#SegoeUI-70" transform="translate(1263.509766 0)"/>
     <use xlink:href="#SegoeUI-20" transform="translate(1322.298828 0)"/>
     <use xlink:href="#SegoeUI-2192" transform="translate(1349.691406 0)"/>
     <use xlink:href="#SegoeUI-20" transform="translate(1435.970703 0)"/>
     <use xlink:href="#SegoeUI-53" transform="translate(1463.363281 0)"/>
     <use xlink:href="#SegoeUI-68" transform="translate(1516.488281 0)"/>
     <use xlink:href="#SegoeUI-61" transform="translate(1573.080078 0)"/>
     <use xlink:href="#SegoeUI-70" transform="translate(1623.958984 0)"/>
     <use xlink:href="#SegoeUI-65" transform="translate(1682.748047 0)"/>
     <use xlink:href="#SegoeUI-20" transform="translate(1735.042969 0)"/>
     <use xlink:href="#SegoeUI-2192" transform="translate(1762.435547 0)"/>
     <use xlink:href="#SegoeUI-20" transform="translate(1848.714844 0)"/>
     <use xlink:href="#SegoeUI-4f" transform="translate(1876.107422 0)"/>
     <use xlink:href="#SegoeUI-75" transform="translate(1951.498047 0)"/>
     <use xlink:href="#SegoeUI-74" transform="translate(2008.089844 0)"/>
     <use xlink:href="#SegoeUI-70" transform="translate(2041.976562 0)"/>
     <use xlink:href="#SegoeUI-75" transform="translate(2100.765625 0)"/>
     <use xlink:href="#SegoeUI-74" transform="translate(2157.357422 0)"/>
    </g>
   </g>
   <g id="text_3">
    <!-- INPUT -->
    <g style="fill: #2c3e50" transform="translate(133.105569 138.843437) scale(0.11 -0.11)">
     <defs>
      <path id="SegoeUI-Bold-50" d="M 1522 1544 
L 1522 0 
L 513 0 
L 513 4481 
L 2094 4481 
Q 3788 4481 3788 3053 
Q 3788 2378 3302 1961 
Q 2816 1544 2003 1544 
L 1522 1544 
z
M 1522 3706 
L 1522 2309 
L 1919 2309 
Q 2725 2309 2725 3016 
Q 2725 3706 1919 3706 
L 1522 3706 
z
" transform="scale(0.015625)"/>
      <path id="SegoeUI-Bold-55" d="M 4166 1941 
Q 4166 -78 2284 -78 
Q 459 -78 459 1894 
L 459 4481 
L 1472 4481 
L 1472 1881 
Q 1472 794 2322 794 
Q 3156 794 3156 1844 
L 3156 4481 
L 4166 4481 
L 4166 1941 
z
" transform="scale(0.015625)"/>
     </defs>
     <use xlink:href="#SegoeUI-Bold-49"/>
     <use xlink:href="#SegoeUI-Bold-4e" transform="translate(31.689453 0)"/>
     <use xlink:href="#SegoeUI-Bold-50" transform="translate(110.693359 0)"/>
     <use xlink:href="#SegoeUI-Bold-55" transform="translate(172.119141 0)"/>
     <use xlink:href="#SegoeUI-Bold-54" transform="translate(244.433594 0)"/>
    </g>
   </g>
   <g id="text_4">
    <!-- Proximity -->
    <g style="fill: #7f8c8d" transform="translate(135.438929 157.016429) scale(0.07 -0.07)">
     <defs>
      <path id="SegoeUI-50" d="M 1113 1694 
L 1113 0 
L 588 0 
L 588 4481 
L 1819 4481 
Q 2538 4481 2933 4131 
Q 3328 3781 3328 3144 
Q 3328 2506 2889 2100 
Q 2450 1694 1703 1694 
L 1113 1694 
z
M 1113 4006 
L 1113 2169 
L 1663 2169 
Q 2206 2169 2492 2417 
Q 2778 2666 2778 3119 
Q 2778 4006 1728 4006 
L 1113 4006 
z
" transform="scale(0.015625)"/>
      <path id="SegoeUI-72" d="M 2188 2681 
Q 2053 2784 1800 2784 
Q 1472 2784 1251 2475 
Q 1031 2166 1031 1631 
L 1031 0 
L 519 0 
L 519 3200 
L 1031 3200 
L 1031 2541 
L 1044 2541 
Q 1153 2878 1378 3067 
Q 1603 3256 1881 3256 
Q 2081 3256 2188 3213 
L 2188 2681 
z
" transform="scale(0.015625)"/>
      <path id="SegoeUI-78" d="M 2856 3200 
L 1781 1581 
L 2838 0 
L 2241 0 
L 1613 1038 
Q 1553 1134 1472 1281 
L 1459 1281 
Q 1444 1253 1313 1038 
L 672 0 
L 81 0 
L 1172 1569 
L 128 3200 
L 725 3200 
L 1344 2106 
Q 1413 1984 1478 1856 
L 1491 1856 
L 2291 3200 
L 2856 3200 
z
" transform="scale(0.015625)"/>
      <path id="SegoeUI-6d" d="M 5063 0 
L 4550 0 
L 4550 1838 
Q 4550 2369 4386 2606 
Q 4222 2844 3834 2844 
Q 3506 2844 3276 2544 
Q 3047 2244 3047 1825 
L 3047 0 
L 2534 0 
L 2534 1900 
Q 2534 2844 1806 2844 
Q 1469 2844 1250 2561 
Q 1031 2278 1031 1825 
L 1031 0 
L 519 0 
L 519 3200 
L 1031 3200 
L 1031 2694 
L 1044 2694 
Q 1384 3275 2038 3275 
Q 2366 3275 2609 3092 
Q 2853 2909 2944 2613 
Q 3300 3275 4006 3275 
Q 5063 3275 5063 1972 
L 5063 0 
z
" transform="scale(0.015625)"/>
      <path id="SegoeUI-79" d="M 3066 3200 
L 1594 -513 
Q 1200 -1506 488 -1506 
Q 288 -1506 153 -1466 
L 153 -1006 
Q 319 -1063 456 -1063 
Q 844 -1063 1038 -600 
L 1294 6 
L 44 3200 
L 613 3200 
L 1478 738 
Q 1494 691 1544 494 
L 1563 494 
Q 1578 569 1625 731 
L 2534 3200 
L 3066 3200 
z
" transform="scale(0.015625)"/>
     </defs>
     <use xlink:href="#SegoeUI-50"/>
     <use xlink:href="#SegoeUI-72" transform="translate(56.005859 0)"/>
     <use xlink:href="#SegoeUI-6f" transform="translate(89.396484 0)"/>
     <use xlink:href="#SegoeUI-78" transform="translate(146.740234 0)"/>
     <use xlink:href="#SegoeUI-69" transform="translate(192.638672 0)"/>
     <use xlink:href="#SegoeUI-6d" transform="translate(216.857422 0)"/>
     <use xlink:href="#SegoeUI-69" transform="translate(302.990234 0)"/>
     <use xlink:href="#SegoeUI-74" transform="translate(327.208984 0)"/>
     <use xlink:href="#SegoeUI-79" transform="translate(361.095703 0)"/>
    </g>
    <!-- Gaze -->
    <g style="fill: #7f8c8d" transform="translate(142.176429 165.40046) scale(0.07 -0.07)">
     <defs>
      <path id="SegoeUI-47" d="M 3938 306 
Q 3263 -75 2438 -75 
Q 1478 -75 886 544 
Q 294 1163 294 2181 
Q 294 3222 951 3889 
Q 1609 4556 2619 4556 
Q 3350 4556 3847 4319 
L 3847 3738 
Q 3303 4081 2559 4081 
Q 1806 4081 1325 3562 
Q 844 3044 844 2219 
Q 844 1369 1291 883 
Q 1738 397 2503 397 
Q 3028 397 3413 606 
L 3413 1863 
L 2431 1863 
L 2431 2338 
L 3938 2338 
L 3938 306 
z
" transform="scale(0.015625)"/>
      <path id="SegoeUI-7a" d="M 2750 3053 
L 856 438 
L 2731 438 
L 2731 0 
L 103 0 
L 103 159 
L 1997 2763 
L 281 2763 
L 281 3200 
L 2750 3200 
L 2750 3053 
z
" transform="scale(0.015625)"/>
     </defs>
     <use xlink:href="#SegoeUI-47"/>
     <use xlink:href="#SegoeUI-61" transform="translate(68.603516 0)"/>
     <use xlink:href="#SegoeUI-7a" transform="translate(119.482422 0)"/>
     <use xlink:href="#SegoeUI-65" transform="translate(164.697266 0)"/>
    </g>
    <!-- Contact -->
    <g style="fill: #7f8c8d" transform="translate(137.803069 173.747304) scale(0.07 -0.07)">
     <defs>
      <path id="SegoeUI-43" d="M 3638 188 
Q 3141 -75 2400 -75 
Q 1444 -75 869 540 
Q 294 1156 294 2156 
Q 294 3231 941 3893 
Q 1588 4556 2581 4556 
Q 3219 4556 3638 4372 
L 3638 3813 
Q 3156 4081 2575 4081 
Q 1803 4081 1323 3565 
Q 844 3050 844 2188 
Q 844 1369 1292 883 
Q 1741 397 2469 397 
Q 3144 397 3638 697 
L 3638 188 
z
" transform="scale(0.015625)"/>
      <path id="SegoeUI-63" d="M 2700 147 
Q 2331 -75 1825 -75 
Q 1141 -75 720 370 
Q 300 816 300 1525 
Q 300 2316 753 2795 
Q 1206 3275 1963 3275 
Q 2384 3275 2706 3119 
L 2706 2594 
Q 2350 2844 1944 2844 
Q 1453 2844 1139 2492 
Q 825 2141 825 1569 
Q 825 1006 1120 681 
Q 1416 356 1913 356 
Q 2331 356 2700 634 
L 2700 147 
z
" transform="scale(0.015625)"/>
     </defs>
     <use xlink:href="#SegoeUI-43"/>
     <use xlink:href="#SegoeUI-6f" transform="translate(61.914062 0)"/>
     <use xlink:href="#SegoeUI-6e" transform="translate(120.507812 0)"/>
     <use xlink:href="#SegoeUI-74" transform="translate(177.099609 0)"/>
     <use xlink:href="#SegoeUI-61" transform="translate(210.986328 0)"/>
     <use xlink:href="#SegoeUI-63" transform="translate(261.865234 0)"/>
     <use xlink:href="#SegoeUI-74" transform="translate(308.056641 0)"/>
    </g>
    <!-- Velocity -->
    <g style="fill: #7f8c8d" transform="translate(137.74346 182.094147) scale(0.07 -0.07)">
     <defs>
      <path id="SegoeUI-56" d="M 3919 4481 
L 2259 0 
L 1681 0 
L 56 4481 
L 641 4481 
L 1881 928 
Q 1941 756 1972 531 
L 1984 531 
Q 2009 719 2088 934 
L 3353 4481 
L 3919 4481 
z
" transform="scale(0.015625)"/>
     </defs>
     <use xlink:href="#SegoeUI-56"/>
     <use xlink:href="#SegoeUI-65" transform="translate(55.859375 0)"/>
     <use xlink:href="#SegoeUI-6c" transform="translate(108.154297 0)"/>
     <use xlink:href="#SegoeUI-6f" transform="translate(132.373047 0)"/>
     <use xlink:href="#SegoeUI-63" transform="translate(190.966797 0)"/>
     <use xlink:href="#SegoeUI-69" transform="translate(237.158203 0)"/>
     <use xlink:href="#SegoeUI-74" transform="translate(261.376953 0)"/>
     <use xlink:href="#SegoeUI-79" transform="translate(295.263672 0)"/>
    </g>
    <!-- Button -->
    <g style="fill: #7f8c8d" transform="translate(139.406507 190.478179) scale(0.07 -0.07)">
     <defs>
      <path id="SegoeUI-42" d="M 588 0 
L 588 4481 
L 1863 4481 
Q 2444 4481 2784 4197 
Q 3125 3913 3125 3456 
Q 3125 3075 2919 2794 
Q 2713 2513 2350 2394 
L 2350 2381 
Q 2803 2328 3075 2039 
Q 3347 1750 3347 1288 
Q 3347 713 2934 356 
Q 2522 0 1894 0 
L 588 0 
z
M 1113 4006 
L 1113 2559 
L 1650 2559 
Q 2081 2559 2328 2767 
Q 2575 2975 2575 3353 
Q 2575 4006 1716 4006 
L 1113 4006 
z
M 1113 2088 
L 1113 475 
L 1825 475 
Q 2288 475 2542 694 
Q 2797 913 2797 1294 
Q 2797 2088 1716 2088 
L 1113 2088 
z
" transform="scale(0.015625)"/>
     </defs>
     <use xlink:href="#SegoeUI-42"/>
     <use xlink:href="#SegoeUI-75" transform="translate(57.324219 0)"/>
     <use xlink:href="#SegoeUI-74" transform="translate(113.916016 0)"/>
     <use xlink:href="#SegoeUI-74" transform="translate(147.802734 0)"/>
     <use xlink:href="#SegoeUI-6f" transform="translate(180.939453 0)"/>
     <use xlink:href="#SegoeUI-6e" transform="translate(239.533203 0)"/>
    </g>
    <!-- Slider -->
    <g style="fill: #7f8c8d" transform="translate(141.108382 198.825022) scale(0.07 -0.07)">
     <defs>
      <path id="SegoeUI-64" d="M 3250 0 
L 2738 0 
L 2738 544 
L 2725 544 
Q 2369 -75 1625 -75 
Q 1022 -75 661 354 
Q 300 784 300 1525 
Q 300 2319 700 2797 
Q 1100 3275 1766 3275 
Q 2425 3275 2725 2756 
L 2738 2756 
L 2738 4738 
L 3250 4738 
L 3250 0 
z
M 2738 1447 
L 2738 1919 
Q 2738 2306 2481 2575 
Q 2225 2844 1831 2844 
Q 1363 2844 1094 2500 
Q 825 2156 825 1550 
Q 825 997 1083 676 
Q 1341 356 1775 356 
Q 2203 356 2470 665 
Q 2738 975 2738 1447 
z
" transform="scale(0.015625)"/>
     </defs>
     <use xlink:href="#SegoeUI-53"/>
     <use xlink:href="#SegoeUI-6c" transform="translate(53.125 0)"/>
     <use xlink:href="#SegoeUI-69" transform="translate(77.34375 0)"/>
     <use xlink:href="#SegoeUI-64" transform="translate(101.5625 0)"/>
     <use xlink:href="#SegoeUI-65" transform="translate(160.449219 0)"/>
     <use xlink:href="#SegoeUI-72" transform="translate(212.744141 0)"/>
    </g>
    <!-- Time -->
    <g style="fill: #7f8c8d" transform="translate(142.244788 207.171866) scale(0.07 -0.07)">
     <defs>
      <path id="SegoeUI-54" d="M 3238 4006 
L 1944 4006 
L 1944 0 
L 1419 0 
L 1419 4006 
L 128 4006 
L 128 4481 
L 3238 4481 
L 3238 4006 
z
" transform="scale(0.015625)"/>
     </defs>
     <use xlink:href="#SegoeUI-54"/>
     <use xlink:href="#SegoeUI-69" transform="translate(52.392578 0)"/>
     <use xlink:href="#SegoeUI-6d" transform="translate(76.611328 0)"/>
     <use xlink:href="#SegoeUI-65" transform="translate(162.744141 0)"/>
    </g>
   </g>
   <g id="text_5">
    <!-- SIGNAL -->
    <g style="fill: #2c3e50" transform="translate(315.353817 138.843437) scale(0.11 -0.11)">
     <defs>
      <path id="SegoeUI-Bold-53" d="M 306 172 
L 306 1172 
Q 578 944 897 830 
Q 1216 716 1541 716 
Q 1731 716 1873 750 
Q 2016 784 2111 845 
Q 2206 906 2253 989 
Q 2300 1072 2300 1169 
Q 2300 1300 2225 1403 
Q 2150 1506 2020 1593 
Q 1891 1681 1712 1762 
Q 1534 1844 1328 1928 
Q 803 2147 545 2462 
Q 288 2778 288 3225 
Q 288 3575 428 3826 
Q 569 4078 811 4240 
Q 1053 4403 1372 4479 
Q 1691 4556 2047 4556 
Q 2397 4556 2667 4514 
Q 2938 4472 3166 4384 
L 3166 3450 
Q 3053 3528 2920 3587 
Q 2788 3647 2647 3686 
Q 2506 3725 2367 3744 
Q 2228 3763 2103 3763 
Q 1931 3763 1790 3730 
Q 1650 3697 1553 3637 
Q 1456 3578 1403 3495 
Q 1350 3413 1350 3309 
Q 1350 3197 1409 3108 
Q 1469 3019 1578 2939 
Q 1688 2859 1844 2782 
Q 2000 2706 2197 2625 
Q 2466 2513 2680 2386 
Q 2894 2259 3047 2100 
Q 3200 1941 3281 1736 
Q 3363 1531 3363 1259 
Q 3363 884 3220 629 
Q 3078 375 2834 217 
Q 2591 59 2267 -9 
Q 1944 -78 1584 -78 
Q 1216 -78 883 -15 
Q 550 47 306 172 
z
" transform="scale(0.015625)"/>
      <path id="SegoeUI-Bold-47" d="M 4191 300 
Q 3534 -78 2559 -78 
Q 1478 -78 854 520 
Q 231 1119 231 2169 
Q 231 3225 912 3890 
Q 1594 4556 2725 4556 
Q 3438 4556 3981 4359 
L 3981 3413 
Q 3463 3713 2713 3713 
Q 2084 3713 1689 3305 
Q 1294 2897 1294 2216 
Q 1294 1525 1648 1147 
Q 2003 769 2606 769 
Q 2969 769 3181 872 
L 3181 1747 
L 2284 1747 
L 2284 2553 
L 4191 2553 
L 4191 300 
z
" transform="scale(0.015625)"/>
      <path id="SegoeUI-Bold-4c" d="M 3181 0 
L 513 0 
L 513 4481 
L 1522 4481 
L 1522 819 
L 3181 819 
L 3181 0 
z
" transform="scale(0.015625)"/>
     </defs>
     <use xlink:href="#SegoeUI-Bold-53"/>
     <use xlink:href="#SegoeUI-Bold-49" transform="translate(56.054688 0)"/>
     <use xlink:href="#SegoeUI-Bold-47" transform="translate(87.744141 0)"/>
     <use xlink:href="#SegoeUI-Bold-4e" transform="translate(158.837891 0)"/>
     <use xlink:href="#SegoeUI-Bold-41" transform="translate(237.841797 0)"/>
     <use xlink:href="#SegoeUI-Bold-4c" transform="translate(308.154297 0)"/>
    </g>
   </g>
   <g id="text_6">
    <!-- Continuous -->
    <g style="fill: #7f8c8d" transform="translate(317.403192 157.053616) scale(0.07 -0.07)">
     <use xlink:href="#SegoeUI-43"/>
     <use xlink:href="#SegoeUI-6f" transform="translate(61.914062 0)"/>
     <use xlink:href="#SegoeUI-6e" transform="translate(120.507812 0)"/>
     <use xlink:href="#SegoeUI-74" transform="translate(177.099609 0)"/>
     <use xlink:href="#SegoeUI-69" transform="translate(210.986328 0)"/>
     <use xlink:href="#SegoeUI-6e" transform="translate(235.205078 0)"/>
     <use xlink:href="#SegoeUI-75" transform="translate(291.796875 0)"/>
     <use xlink:href="#SegoeUI-6f" transform="translate(348.388672 0)"/>
     <use xlink:href="#SegoeUI-75" transform="translate(406.982422 0)"/>
     <use xlink:href="#SegoeUI-73" transform="translate(463.574219 0)"/>
    </g>
    <!-- or Binary -->
    <g style="fill: #7f8c8d" transform="translate(321.22202 165.40046) scale(0.07 -0.07)">
     <use xlink:href="#SegoeUI-6f"/>
     <use xlink:href="#SegoeUI-72" transform="translate(58.59375 0)"/>
     <use xlink:href="#SegoeUI-20" transform="translate(93.359375 0)"/>
     <use xlink:href="#SegoeUI-42" transform="translate(120.751953 0)"/>
     <use xlink:href="#SegoeUI-69" transform="translate(178.076172 0)"/>
     <use xlink:href="#SegoeUI-6e" transform="translate(202.294922 0)"/>
     <use xlink:href="#SegoeUI-61" transform="translate(258.886719 0)"/>
     <use xlink:href="#SegoeUI-72" transform="translate(309.765625 0)"/>
     <use xlink:href="#SegoeUI-79" transform="translate(348.53125 0)"/>
    </g>
   </g>
   <g id="text_7">
    <!-- RELATIONSHIP -->
    <g style="fill: #2c3e50" transform="translate(488.751417 138.843437) scale(0.11 -0.11)">
     <use xlink:href="#SegoeUI-Bold-52"/>
     <use xlink:href="#SegoeUI-Bold-45" transform="translate(65.283203 0)"/>
     <use xlink:href="#SegoeUI-Bold-4c" transform="translate(118.505859 0)"/>
     <use xlink:href="#SegoeUI-Bold-41" transform="translate(171.878906 0)"/>
     <use xlink:href="#SegoeUI-Bold-54" transform="translate(235.191406 0)"/>
     <use xlink:href="#SegoeUI-Bold-49" transform="translate(293.785156 0)"/>
     <use xlink:href="#SegoeUI-Bold-4f" transform="translate(325.474609 0)"/>
     <use xlink:href="#SegoeUI-Bold-4e" transform="translate(401.304688 0)"/>
     <use xlink:href="#SegoeUI-Bold-53" transform="translate(480.308594 0)"/>
     <use xlink:href="#SegoeUI-Bold-48" transform="translate(536.363281 0)"/>
     <use xlink:href="#SegoeUI-Bold-49" transform="translate(612.974609 0)"/>
     <use xlink:href="#SegoeUI-Bold-50" transform="translate(644.664062 0)"/>
    </g>
   </g>
   <g id="text_8">
    <!-- Bound -->
    <g style="fill: #7f8c8d" transform="translate(517.505714 157.053616) scale(0.07 -0.07)">
     <use xlink:href="#SegoeUI-42"/>
     <use xlink:href="#SegoeUI-6f" transform="translate(57.324219 0)"/>
     <use xlink:href="#SegoeUI-75" transform="translate(115.917969 0)"/>
     <use xlink:href="#SegoeUI-6e" transform="translate(172.509766 0)"/>
     <use xlink:href="#SegoeUI-64" transform="translate(229.101562 0)"/>
    </g>
    <!-- or Unbound -->
    <g style="fill: #7f8c8d" transform="translate(508.842667 165.40046) scale(0.07 -0.07)">
     <defs>
      <path id="SegoeUI-55" d="M 3866 1813 
Q 3866 -75 2163 -75 
Q 531 -75 531 1741 
L 531 4481 
L 1056 4481 
L 1056 1775 
Q 1056 397 2219 397 
Q 3341 397 3341 1728 
L 3341 4481 
L 3866 4481 
L 3866 1813 
z
" transform="scale(0.015625)"/>
      <path id="SegoeUI-62" d="M 1044 463 
L 1031 463 
L 1031 0 
L 519 0 
L 519 4738 
L 1031 4738 
L 1031 2638 
L 1044 2638 
Q 1422 3275 2150 3275 
Q 2766 3275 3114 2845 
Q 3463 2416 3463 1694 
Q 3463 891 3072 408 
Q 2681 -75 2003 -75 
Q 1369 -75 1044 463 
z
M 1031 1753 
L 1031 1306 
Q 1031 909 1289 632 
Q 1547 356 1944 356 
Q 2409 356 2673 712 
Q 2938 1069 2938 1703 
Q 2938 2238 2691 2541 
Q 2444 2844 2022 2844 
Q 1575 2844 1303 2533 
Q 1031 2222 1031 1753 
z
" transform="scale(0.015625)"/>
     </defs>
     <use xlink:href="#SegoeUI-6f"/>
     <use xlink:href="#SegoeUI-72" transform="translate(58.59375 0)"/>
     <use xlink:href="#SegoeUI-20" transform="translate(93.359375 0)"/>
     <use xlink:href="#SegoeUI-55" transform="translate(120.751953 0)"/>
     <use xlink:href="#SegoeUI-6e" transform="translate(189.453125 0)"/>
     <use xlink:href="#SegoeUI-62" transform="translate(246.044922 0)"/>
     <use xlink:href="#SegoeUI-6f" transform="translate(304.833984 0)"/>
     <use xlink:href="#SegoeUI-75" transform="translate(363.427734 0)"/>
     <use xlink:href="#SegoeUI-6e" transform="translate(420.019531 0)"/>
     <use xlink:href="#SegoeUI-64" transform="translate(476.611328 0)"/>
    </g>
   </g>
   <g id="text_9">
    <!-- SHAPE -->
    <g style="fill: #2c3e50" transform="translate(723.973482 138.843437) scale(0.11 -0.11)">
     <use xlink:href="#SegoeUI-Bold-53"/>
     <use xlink:href="#SegoeUI-Bold-48" transform="translate(56.054688 0)"/>
     <use xlink:href="#SegoeUI-Bold-41" transform="translate(132.666016 0)"/>
     <use xlink:href="#SegoeUI-Bold-50" transform="translate(202.978516 0)"/>
     <use xlink:href="#SegoeUI-Bold-45" transform="translate(264.404297 0)"/>
    </g>
   </g>
   <g id="text_10">
    <!-- Curve -->
    <g style="fill: #7f8c8d" transform="translate(732.452779 157.053616) scale(0.07 -0.07)">
     <defs>
      <path id="SegoeUI-76" d="M 3034 3200 
L 1759 0 
L 1256 0 
L 44 3200 
L 606 3200 
L 1419 875 
Q 1509 619 1531 428 
L 1544 428 
Q 1575 669 1644 863 
L 2494 3200 
L 3034 3200 
z
" transform="scale(0.015625)"/>
     </defs>
     <use xlink:href="#SegoeUI-43"/>
     <use xlink:href="#SegoeUI-75" transform="translate(61.914062 0)"/>
     <use xlink:href="#SegoeUI-72" transform="translate(118.505859 0)"/>
     <use xlink:href="#SegoeUI-76" transform="translate(157.271484 0)"/>
     <use xlink:href="#SegoeUI-65" transform="translate(204.546875 0)"/>
    </g>
    <!-- Range -->
    <g style="fill: #7f8c8d" transform="translate(731.696451 165.40046) scale(0.07 -0.07)">
     <use xlink:href="#SegoeUI-52"/>
     <use xlink:href="#SegoeUI-61" transform="translate(59.814453 0)"/>
     <use xlink:href="#SegoeUI-6e" transform="translate(110.693359 0)"/>
     <use xlink:href="#SegoeUI-67" transform="translate(167.285156 0)"/>
     <use xlink:href="#SegoeUI-65" transform="translate(226.171875 0)"/>
    </g>
    <!-- Envelope -->
    <g style="fill: #7f8c8d" transform="translate(727.419342 173.784491) scale(0.07 -0.07)">
     <defs>
      <path id="SegoeUI-45" d="M 2963 0 
L 588 0 
L 588 4481 
L 2863 4481 
L 2863 4006 
L 1113 4006 
L 1113 2516 
L 2731 2516 
L 2731 2044 
L 1113 2044 
L 1113 475 
L 2963 475 
L 2963 0 
z
" transform="scale(0.015625)"/>
     </defs>
     <use xlink:href="#SegoeUI-45"/>
     <use xlink:href="#SegoeUI-6e" transform="translate(50.585938 0)"/>
     <use xlink:href="#SegoeUI-76" transform="translate(107.177734 0)"/>
     <use xlink:href="#SegoeUI-65" transform="translate(154.453125 0)"/>
     <use xlink:href="#SegoeUI-6c" transform="translate(206.748047 0)"/>
     <use xlink:href="#SegoeUI-6f" transform="translate(230.966797 0)"/>
     <use xlink:href="#SegoeUI-70" transform="translate(289.560547 0)"/>
     <use xlink:href="#SegoeUI-65" transform="translate(348.349609 0)"/>
    </g>
   </g>
   <g id="text_11">
    <!-- OUTPUT -->
    <g style="fill: #2c3e50" transform="translate(897.708705 138.843437) scale(0.11 -0.11)">
     <use xlink:href="#SegoeUI-Bold-4f"/>
     <use xlink:href="#SegoeUI-Bold-55" transform="translate(75.830078 0)"/>
     <use xlink:href="#SegoeUI-Bold-54" transform="translate(148.144531 0)"/>
     <use xlink:href="#SegoeUI-Bold-50" transform="translate(206.738281 0)"/>
     <use xlink:href="#SegoeUI-Bold-55" transform="translate(268.164062 0)"/>
     <use xlink:href="#SegoeUI-Bold-54" transform="translate(340.478516 0)"/>
    </g>
   </g>
   <g id="text_12">
    <!-- Light -->
    <g style="fill: #7f8c8d" transform="translate(911.933627 157.053616) scale(0.07 -0.07)">
     <defs>
      <path id="SegoeUI-4c" d="M 2913 0 
L 588 0 
L 588 4481 
L 1113 4481 
L 1113 475 
L 2913 475 
L 2913 0 
z
" transform="scale(0.015625)"/>
     </defs>
     <use xlink:href="#SegoeUI-4c"/>
     <use xlink:href="#SegoeUI-69" transform="translate(47.070312 0)"/>
     <use xlink:href="#SegoeUI-67" transform="translate(71.289062 0)"/>
     <use xlink:href="#SegoeUI-68" transform="translate(130.175781 0)"/>
     <use xlink:href="#SegoeUI-74" transform="translate(186.767578 0)"/>
    </g>
    <!-- Material -->
    <g style="fill: #7f8c8d" transform="translate(907.05058 165.437647) scale(0.07 -0.07)">
     <defs>
      <path id="SegoeUI-4d" d="M 5156 0 
L 4634 0 
L 4634 3006 
Q 4634 3363 4678 3878 
L 4666 3878 
Q 4591 3575 4531 3444 
L 3000 0 
L 2744 0 
L 1216 3419 
Q 1150 3569 1081 3878 
L 1069 3878 
Q 1094 3609 1094 3000 
L 1094 0 
L 588 0 
L 588 4481 
L 1281 4481 
L 2656 1356 
Q 2816 997 2863 819 
L 2881 819 
Q 3016 1188 3097 1369 
L 4500 4481 
L 5156 4481 
L 5156 0 
z
" transform="scale(0.015625)"/>
     </defs>
     <use xlink:href="#SegoeUI-4d"/>
     <use xlink:href="#SegoeUI-61" transform="translate(89.794922 0)"/>
     <use xlink:href="#SegoeUI-74" transform="translate(140.673828 0)"/>
     <use xlink:href="#SegoeUI-65" transform="translate(173.810547 0)"/>
     <use xlink:href="#SegoeUI-72" transform="translate(226.105469 0)"/>
     <use xlink:href="#SegoeUI-69" transform="translate(260.871094 0)"/>
     <use xlink:href="#SegoeUI-61" transform="translate(285.089844 0)"/>
     <use xlink:href="#SegoeUI-6c" transform="translate(335.96875 0)"/>
    </g>
    <!-- Sound -->
    <g style="fill: #7f8c8d" transform="translate(909.724252 173.784491) scale(0.07 -0.07)">
     <use xlink:href="#SegoeUI-53"/>
     <use xlink:href="#SegoeUI-6f" transform="translate(53.125 0)"/>
     <use xlink:href="#SegoeUI-75" transform="translate(111.71875 0)"/>
     <use xlink:href="#SegoeUI-6e" transform="translate(168.310547 0)"/>
     <use xlink:href="#SegoeUI-64" transform="translate(224.902344 0)"/>
    </g>
    <!-- Particles -->
    <g style="fill: #7f8c8d" transform="translate(906.899096 182.131335) scale(0.07 -0.07)">
     <use xlink:href="#SegoeUI-50"/>
     <use xlink:href="#SegoeUI-61" transform="translate(52.755859 0)"/>
     <use xlink:href="#SegoeUI-72" transform="translate(103.634766 0)"/>
     <use xlink:href="#SegoeUI-74" transform="translate(141.275391 0)"/>
     <use xlink:href="#SegoeUI-69" transform="translate(175.162109 0)"/>
     <use xlink:href="#SegoeUI-63" transform="translate(199.380859 0)"/>
     <use xlink:href="#SegoeUI-6c" transform="translate(245.572266 0)"/>
     <use xlink:href="#SegoeUI-65" transform="translate(269.791016 0)"/>
     <use xlink:href="#SegoeUI-73" transform="translate(322.085938 0)"/>
    </g>
    <!-- Environment -->
    <g style="fill: #7f8c8d" transform="translate(900.168705 190.478179) scale(0.07 -0.07)">
     <use xlink:href="#SegoeUI-45"/>
     <use xlink:href="#SegoeUI-6e" transform="translate(50.585938 0)"/>
     <use xlink:href="#SegoeUI-76" transform="translate(107.177734 0)"/>
     <use xlink:href="#SegoeUI-69" transform="translate(155.078125 0)"/>
     <use xlink:href="#SegoeUI-72" transform="translate(179.296875 0)"/>
     <use xlink:href="#SegoeUI-6f" transform="translate(212.6875 0)"/>
     <use xlink:href="#SegoeUI-6e" transform="translate(271.28125 0)"/>
     <use xlink:href="#SegoeUI-6d" transform="translate(327.873047 0)"/>
     <use xlink:href="#SegoeUI-65" transform="translate(414.005859 0)"/>
     <use xlink:href="#SegoeUI-6e" transform="translate(466.300781 0)"/>
     <use xlink:href="#SegoeUI-74" transform="translate(522.892578 0)"/>
    </g>
    <!-- Camera -->
    <g style="fill: #7f8c8d" transform="translate(907.866518 198.825022) scale(0.07 -0.07)">
     <use xlink:href="#SegoeUI-43"/>
     <use xlink:href="#SegoeUI-61" transform="translate(61.914062 0)"/>
     <use xlink:href="#SegoeUI-6d" transform="translate(112.792969 0)"/>
     <use xlink:href="#SegoeUI-65" transform="translate(198.925781 0)"/>
     <use xlink:href="#SegoeUI-72" transform="translate(251.220703 0)"/>
     <use xlink:href="#SegoeUI-61" transform="translate(285.986328 0)"/>
    </g>
   </g>
   <g id="patch_11">
    <path d="M 223.058573 162.457143 
Q 249.572963 162.457143 273.851285 162.457143 
" style="fill: none; stroke: #bdc3c7; stroke-width: 2; stroke-linecap: round"/>
    <path d="M 269.851285 160.457143 
L 273.851285 162.457143 
L 269.851285 164.457143 
" style="fill: none; stroke: #bdc3c7; stroke-width: 2; stroke-linecap: round"/>
   </g>
   <g id="patch_12">
    <path d="M 394.144287 162.457143 
Q 420.658677 162.457143 444.936999 162.457143 
" style="fill: none; stroke: #bdc3c7; stroke-width: 2; stroke-linecap: round"/>
    <path d="M 440.936999 160.457143 
L 444.936999 162.457143 
L 440.936999 164.457143 
" style="fill: none; stroke: #bdc3c7; stroke-width: 2; stroke-linecap: round"/>
   </g>
   <g id="patch_13">
    <path d="M 608.00143 162.457143 
Q 634.51582 162.457143 658.794142 162.457143 
" style="fill: none; stroke: #bdc3c7; stroke-width: 2; stroke-linecap: round"/>
    <path d="M 654.794142 160.457143 
L 658.794142 162.457143 
L 654.794142 164.457143 
" style="fill: none; stroke: #bdc3c7; stroke-width: 2; stroke-linecap: round"/>
   </g>
   <g id="patch_14">
    <path d="M 821.859443 162.457143 
Q 841.246179 162.457143 858.396847 162.457143 
" style="fill: none; stroke: #bdc3c7; stroke-width: 2; stroke-linecap: round"/>
    <path d="M 854.396847 160.457143 
L 858.396847 162.457143 
L 854.396847 164.457143 
" style="fill: none; stroke: #bdc3c7; stroke-width: 2; stroke-linecap: round"/>
   </g>
   <g id="text_13">
    <!-- INTERACTION MODES -->
    <g style="fill: #2c3e50" transform="translate(438.19375 233.028571) scale(0.13 -0.13)">
     <defs>
      <path id="SegoeUI-Bold-44" d="M 513 0 
L 513 4481 
L 2100 4481 
Q 4488 4481 4488 2297 
Q 4488 1250 3836 625 
Q 3184 0 2100 0 
L 513 0 
z
M 1522 3659 
L 1522 819 
L 2022 819 
Q 2678 819 3051 1212 
Q 3425 1606 3425 2284 
Q 3425 2925 3054 3292 
Q 2684 3659 2016 3659 
L 1522 3659 
z
" transform="scale(0.015625)"/>
     </defs>
     <use xlink:href="#SegoeUI-Bold-49"/>
     <use xlink:href="#SegoeUI-Bold-4e" transform="translate(31.689453 0)"/>
     <use xlink:href="#SegoeUI-Bold-54" transform="translate(110.693359 0)"/>
     <use xlink:href="#SegoeUI-Bold-45" transform="translate(169.287109 0)"/>
     <use xlink:href="#SegoeUI-Bold-52" transform="translate(222.509766 0)"/>
     <use xlink:href="#SegoeUI-Bold-41" transform="translate(287.792969 0)"/>
     <use xlink:href="#SegoeUI-Bold-43" transform="translate(356.605469 0)"/>
     <use xlink:href="#SegoeUI-Bold-54" transform="translate(419.007812 0)"/>
     <use xlink:href="#SegoeUI-Bold-49" transform="translate(477.601562 0)"/>
     <use xlink:href="#SegoeUI-Bold-4f" transform="translate(509.291016 0)"/>
     <use xlink:href="#SegoeUI-Bold-4e" transform="translate(585.121094 0)"/>
     <use xlink:href="#SegoeUI-Bold-20" transform="translate(664.125 0)"/>
     <use xlink:href="#SegoeUI-Bold-4d" transform="translate(691.712891 0)"/>
     <use xlink:href="#SegoeUI-Bold-4f" transform="translate(787.416016 0)"/>
     <use xlink:href="#SegoeUI-Bold-44" transform="translate(863.246094 0)"/>
     <use xlink:href="#SegoeUI-Bold-45" transform="translate(936.976562 0)"/>
     <use xlink:href="#SegoeUI-Bold-53" transform="translate(990.199219 0)"/>
    </g>
   </g>
   <g id="text_14">
    <!-- BOUND -->
    <g style="fill: #2c3e50" transform="translate(363.200781 250.671429) scale(0.1 -0.1)">
     <defs>
      <path id="SegoeUI-Bold-42" d="M 513 0 
L 513 4481 
L 2144 4481 
Q 2894 4481 3297 4206 
Q 3700 3931 3700 3431 
Q 3700 3069 3454 2797 
Q 3209 2525 2828 2419 
L 2828 2406 
Q 3306 2347 3592 2053 
Q 3878 1759 3878 1338 
Q 3878 722 3437 361 
Q 2997 0 2234 0 
L 513 0 
z
M 1522 3738 
L 1522 2675 
L 1966 2675 
Q 2278 2675 2458 2826 
Q 2638 2978 2638 3244 
Q 2638 3738 1900 3738 
L 1522 3738 
z
M 1522 1925 
L 1522 744 
L 2069 744 
Q 2419 744 2617 906 
Q 2816 1069 2816 1350 
Q 2816 1619 2620 1772 
Q 2425 1925 2075 1925 
L 1522 1925 
z
" transform="scale(0.015625)"/>
     </defs>
     <use xlink:href="#SegoeUI-Bold-42"/>
     <use xlink:href="#SegoeUI-Bold-4f" transform="translate(64.111328 0)"/>
     <use xlink:href="#SegoeUI-Bold-55" transform="translate(139.941406 0)"/>
     <use xlink:href="#SegoeUI-Bold-4e" transform="translate(212.255859 0)"/>
     <use xlink:href="#SegoeUI-Bold-44" transform="translate(291.259766 0)"/>
    </g>
   </g>
   <g id="text_15">
    <!-- UNBOUND -->
    <g style="fill: #2c3e50" transform="translate(605.135156 250.671429) scale(0.1 -0.1)">
     <use xlink:href="#SegoeUI-Bold-55"/>
     <use xlink:href="#SegoeUI-Bold-4e" transform="translate(72.314453 0)"/>
     <use xlink:href="#SegoeUI-Bold-42" transform="translate(151.318359 0)"/>
     <use xlink:href="#SegoeUI-Bold-4f" transform="translate(215.429688 0)"/>
     <use xlink:href="#SegoeUI-Bold-55" transform="translate(291.259766 0)"/>
     <use xlink:href="#SegoeUI-Bold-4e" transform="translate(363.574219 0)"/>
     <use xlink:href="#SegoeUI-Bold-44" transform="translate(442.578125 0)"/>
    </g>
   </g>
   <g id="text_16">
    <!-- CONTINUOUS -->
    <g style="fill: #2c3e50" transform="translate(243.937143 340.437299) rotate(-90) scale(0.09 -0.09)">
     <use xlink:href="#SegoeUI-Bold-43"/>
     <use xlink:href="#SegoeUI-Bold-4f" transform="translate(61.152344 0)"/>
     <use xlink:href="#SegoeUI-Bold-4e" transform="translate(136.982422 0)"/>
     <use xlink:href="#SegoeUI-Bold-54" transform="translate(215.986328 0)"/>
     <use xlink:href="#SegoeUI-Bold-49" transform="translate(274.580078 0)"/>
     <use xlink:href="#SegoeUI-Bold-4e" transform="translate(306.269531 0)"/>
     <use xlink:href="#SegoeUI-Bold-55" transform="translate(385.273438 0)"/>
     <use xlink:href="#SegoeUI-Bold-4f" transform="translate(457.587891 0)"/>
     <use xlink:href="#SegoeUI-Bold-55" transform="translate(533.417969 0)"/>
     <use xlink:href="#SegoeUI-Bold-53" transform="translate(605.732422 0)"/>
    </g>
   </g>
   <g id="text_17">
    <!-- BINARY -->
    <g style="fill: #2c3e50" transform="translate(243.937143 440.224944) rotate(-90) scale(0.09 -0.09)">
     <defs>
      <path id="SegoeUI-Bold-59" d="M 3891 4481 
L 2431 1594 
L 2431 0 
L 1422 0 
L 1422 1575 
L 0 4481 
L 1153 4481 
L 1875 2809 
Q 1894 2763 1978 2444 
L 1991 2444 
Q 2031 2669 2088 2797 
L 2822 4481 
L 3891 4481 
z
" transform="scale(0.015625)"/>
     </defs>
     <use xlink:href="#SegoeUI-Bold-42"/>
     <use xlink:href="#SegoeUI-Bold-49" transform="translate(64.111328 0)"/>
     <use xlink:href="#SegoeUI-Bold-4e" transform="translate(95.800781 0)"/>
     <use xlink:href="#SegoeUI-Bold-41" transform="translate(174.804688 0)"/>
     <use xlink:href="#SegoeUI-Bold-52" transform="translate(245.117188 0)"/>
     <use xlink:href="#SegoeUI-Bold-59" transform="translate(309.400391 0)"/>
    </g>
   </g>
   <g id="text_18">
    <!-- Tracking -->
    <g style="fill: #2980b9" transform="translate(363.474609 274.977098) scale(0.09 -0.09)">
     <defs>
      <path id="SegoeUI-Bold-72" d="M 2503 2309 
Q 2325 2406 2088 2406 
Q 1766 2406 1584 2170 
Q 1403 1934 1403 1528 
L 1403 0 
L 416 0 
L 416 3200 
L 1403 3200 
L 1403 2606 
L 1416 2606 
Q 1650 3256 2259 3256 
Q 2416 3256 2503 3219 
L 2503 2309 
z
" transform="scale(0.015625)"/>
      <path id="SegoeUI-Bold-61" d="M 3078 0 
L 2144 0 
L 2144 459 
L 2131 459 
Q 1809 -78 1178 -78 
Q 713 -78 445 186 
Q 178 450 178 891 
Q 178 1822 1281 1966 
L 2150 2081 
Q 2150 2606 1581 2606 
Q 1009 2606 494 2266 
L 494 3009 
Q 700 3116 1058 3197 
Q 1416 3278 1709 3278 
Q 3078 3278 3078 1913 
L 3078 0 
z
M 2150 1300 
L 2150 1516 
L 1569 1441 
Q 1088 1378 1088 1006 
Q 1088 838 1205 730 
Q 1322 622 1522 622 
Q 1800 622 1975 814 
Q 2150 1006 2150 1300 
z
" transform="scale(0.015625)"/>
      <path id="SegoeUI-Bold-63" d="M 2841 116 
Q 2506 -78 1875 -78 
Q 1138 -78 681 369 
Q 225 816 225 1522 
Q 225 2338 714 2808 
Q 1203 3278 2022 3278 
Q 2588 3278 2841 3128 
L 2841 2291 
Q 2531 2522 2150 2522 
Q 1725 2522 1476 2273 
Q 1228 2025 1228 1588 
Q 1228 1163 1465 920 
Q 1703 678 2119 678 
Q 2488 678 2841 909 
L 2841 116 
z
" transform="scale(0.015625)"/>
      <path id="SegoeUI-Bold-6b" d="M 3622 0 
L 2438 0 
L 1416 1588 
L 1403 1588 
L 1403 0 
L 416 0 
L 416 4738 
L 1403 4738 
L 1403 1722 
L 1416 1722 
L 2369 3200 
L 3541 3200 
L 2394 1697 
L 3622 0 
z
" transform="scale(0.015625)"/>
      <path id="SegoeUI-Bold-69" d="M 916 3706 
Q 666 3706 506 3854 
Q 347 4003 347 4219 
Q 347 4441 506 4581 
Q 666 4722 916 4722 
Q 1169 4722 1326 4581 
Q 1484 4441 1484 4219 
Q 1484 3994 1326 3850 
Q 1169 3706 916 3706 
z
M 1403 0 
L 416 0 
L 416 3200 
L 1403 3200 
L 1403 0 
z
" transform="scale(0.015625)"/>
      <path id="SegoeUI-Bold-6e" d="M 3506 0 
L 2522 0 
L 2522 1778 
Q 2522 2522 1991 2522 
Q 1734 2522 1568 2325 
Q 1403 2128 1403 1825 
L 1403 0 
L 416 0 
L 416 3200 
L 1403 3200 
L 1403 2694 
L 1416 2694 
Q 1769 3278 2444 3278 
Q 3506 3278 3506 1959 
L 3506 0 
z
" transform="scale(0.015625)"/>
      <path id="SegoeUI-Bold-67" d="M 3553 366 
Q 3553 -525 3037 -1014 
Q 2522 -1503 1544 -1503 
Q 897 -1503 519 -1319 
L 519 -488 
Q 1013 -775 1516 -775 
Q 2016 -775 2291 -511 
Q 2566 -247 2566 206 
L 2566 459 
L 2553 459 
Q 2216 -78 1556 -78 
Q 944 -78 584 353 
Q 225 784 225 1509 
Q 225 2322 625 2800 
Q 1025 3278 1678 3278 
Q 2263 3278 2553 2828 
L 2566 2828 
L 2566 3200 
L 3553 3200 
L 3553 366 
z
M 2578 1538 
L 2578 1791 
Q 2578 2094 2398 2308 
Q 2219 2522 1931 2522 
Q 1603 2522 1415 2265 
Q 1228 2009 1228 1544 
Q 1228 1144 1406 911 
Q 1584 678 1894 678 
Q 2200 678 2389 914 
Q 2578 1150 2578 1538 
z
" transform="scale(0.015625)"/>
     </defs>
     <use xlink:href="#SegoeUI-Bold-54"/>
     <use xlink:href="#SegoeUI-Bold-72" transform="translate(51.09375 0)"/>
     <use xlink:href="#SegoeUI-Bold-61" transform="translate(90.888672 0)"/>
     <use xlink:href="#SegoeUI-Bold-63" transform="translate(144.697266 0)"/>
     <use xlink:href="#SegoeUI-Bold-6b" transform="translate(192.695312 0)"/>
     <use xlink:href="#SegoeUI-Bold-69" transform="translate(248.603516 0)"/>
     <use xlink:href="#SegoeUI-Bold-6e" transform="translate(277.021484 0)"/>
     <use xlink:href="#SegoeUI-Bold-67" transform="translate(337.519531 0)"/>
    </g>
   </g>
   <g id="text_19">
    <!-- Proximity → Light intensity -->
    <g style="fill: #555555" transform="translate(337.559766 298.566629) scale(0.075 -0.075)">
     <use xlink:href="#SegoeUI-50"/>
     <use xlink:href="#SegoeUI-72" transform="translate(56.005859 0)"/>
     <use xlink:href="#SegoeUI-6f" transform="translate(89.396484 0)"/>
     <use xlink:href="#SegoeUI-78" transform="translate(146.740234 0)"/>
     <use xlink:href="#SegoeUI-69" transform="translate(192.638672 0)"/>
     <use xlink:href="#SegoeUI-6d" transform="translate(216.857422 0)"/>
     <use xlink:href="#SegoeUI-69" transform="translate(302.990234 0)"/>
     <use xlink:href="#SegoeUI-74" transform="translate(327.208984 0)"/>
     <use xlink:href="#SegoeUI-79" transform="translate(361.095703 0)"/>
     <use xlink:href="#SegoeUI-20" transform="translate(409.484375 0)"/>
     <use xlink:href="#SegoeUI-2192" transform="translate(436.876953 0)"/>
     <use xlink:href="#SegoeUI-20" transform="translate(523.15625 0)"/>
     <use xlink:href="#SegoeUI-4c" transform="translate(550.548828 0)"/>
     <use xlink:href="#SegoeUI-69" transform="translate(597.619141 0)"/>
     <use xlink:href="#SegoeUI-67" transform="translate(621.837891 0)"/>
     <use xlink:href="#SegoeUI-68" transform="translate(680.724609 0)"/>
     <use xlink:href="#SegoeUI-74" transform="translate(737.316406 0)"/>
     <use xlink:href="#SegoeUI-20" transform="translate(771.203125 0)"/>
     <use xlink:href="#SegoeUI-69" transform="translate(798.595703 0)"/>
     <use xlink:href="#SegoeUI-6e" transform="translate(822.814453 0)"/>
     <use xlink:href="#SegoeUI-74" transform="translate(879.40625 0)"/>
     <use xlink:href="#SegoeUI-65" transform="translate(912.542969 0)"/>
     <use xlink:href="#SegoeUI-6e" transform="translate(964.837891 0)"/>
     <use xlink:href="#SegoeUI-73" transform="translate(1021.429688 0)"/>
     <use xlink:href="#SegoeUI-69" transform="translate(1063.861328 0)"/>
     <use xlink:href="#SegoeUI-74" transform="translate(1088.080078 0)"/>
     <use xlink:href="#SegoeUI-79" transform="translate(1121.966797 0)"/>
    </g>
   </g>
   <g id="text_20">
    <!-- Curve · Range · Attack · Release -->
    <g style="fill: #888888" transform="translate(337.631367 350.062087) scale(0.065 -0.065)">
     <defs>
      <path id="SegoeUI-Italic-43" d="M 4141 3738 
Q 4050 3797 3933 3859 
Q 3816 3922 3675 3972 
Q 3534 4022 3367 4053 
Q 3200 4084 3009 4084 
Q 2541 4084 2164 3918 
Q 1788 3753 1525 3462 
Q 1263 3172 1120 2780 
Q 978 2388 978 1931 
Q 978 1559 1081 1273 
Q 1184 988 1375 792 
Q 1566 597 1831 497 
Q 2097 397 2419 397 
Q 2625 397 2794 420 
Q 2963 444 3106 486 
Q 3250 528 3376 586 
Q 3503 644 3622 709 
L 3500 159 
Q 3247 44 2958 -17 
Q 2669 -78 2309 -78 
Q 1884 -78 1536 62 
Q 1188 203 942 461 
Q 697 719 562 1081 
Q 428 1444 428 1888 
Q 428 2475 614 2965 
Q 800 3456 1142 3809 
Q 1484 4163 1964 4359 
Q 2444 4556 3028 4556 
Q 3428 4556 3736 4470 
Q 4044 4384 4256 4275 
L 4141 3738 
z
" transform="scale(0.015625)"/>
      <path id="SegoeUI-Italic-75" d="M 2906 909 
Q 2878 788 2854 656 
Q 2831 525 2809 403 
Q 2788 281 2772 175 
Q 2756 69 2747 0 
L 2247 0 
Q 2263 122 2283 255 
Q 2303 388 2322 500 
Q 2344 631 2363 756 
L 2350 756 
Q 2241 584 2108 432 
Q 1975 281 1820 167 
Q 1666 53 1492 -12 
Q 1319 -78 1131 -78 
Q 925 -78 770 -14 
Q 616 50 512 165 
Q 409 281 357 443 
Q 306 606 306 806 
Q 306 847 318 928 
Q 331 1009 347 1103 
Q 363 1197 383 1289 
Q 403 1381 416 1447 
L 788 3200 
L 1306 3200 
L 909 1325 
Q 897 1275 884 1209 
Q 872 1144 861 1078 
Q 850 1013 844 958 
Q 838 903 838 872 
Q 838 638 952 498 
Q 1066 359 1294 359 
Q 1431 359 1568 415 
Q 1706 472 1836 567 
Q 1966 663 2081 789 
Q 2197 916 2290 1058 
Q 2384 1200 2450 1350 
Q 2516 1500 2547 1638 
L 2881 3200 
L 3397 3200 
L 2906 909 
z
" transform="scale(0.015625)"/>
      <path id="SegoeUI-Italic-72" d="M 2394 2656 
L 2381 2656 
Q 2319 2694 2217 2730 
Q 2116 2766 2016 2766 
Q 1834 2766 1668 2648 
Q 1503 2531 1367 2339 
Q 1231 2147 1129 1900 
Q 1028 1653 972 1394 
L 672 0 
L 159 0 
L 609 2125 
Q 638 2256 666 2400 
Q 694 2544 717 2687 
Q 741 2831 759 2962 
Q 778 3094 788 3200 
L 1294 3200 
Q 1284 3106 1271 3001 
Q 1259 2897 1246 2798 
Q 1234 2700 1221 2620 
Q 1209 2541 1203 2497 
L 1216 2497 
Q 1316 2675 1419 2819 
Q 1522 2963 1636 3064 
Q 1750 3166 1878 3222 
Q 2006 3278 2156 3278 
Q 2244 3278 2330 3261 
Q 2416 3244 2484 3225 
L 2394 2656 
z
" transform="scale(0.015625)"/>
      <path id="SegoeUI-Italic-76" d="M 1369 0 
L 934 0 
L 428 3200 
L 947 3200 
L 1228 1184 
Q 1238 1125 1245 1050 
Q 1253 975 1261 897 
Q 1269 819 1272 744 
Q 1275 669 1275 609 
L 1288 609 
Q 1313 666 1345 737 
Q 1378 809 1418 886 
Q 1459 963 1501 1041 
Q 1544 1119 1581 1184 
L 2725 3200 
L 3309 3200 
L 1369 0 
z
" transform="scale(0.015625)"/>
      <path id="SegoeUI-Italic-65" d="M 2994 2450 
Q 2994 2197 2881 1989 
Q 2769 1781 2509 1632 
Q 2250 1484 1825 1403 
Q 1400 1322 775 1319 
Q 769 1284 769 1247 
Q 769 1213 769 1184 
Q 769 1016 816 866 
Q 863 716 961 603 
Q 1059 491 1214 425 
Q 1369 359 1581 359 
Q 1797 359 2055 442 
Q 2313 525 2547 678 
L 2450 172 
Q 2278 72 2040 -3 
Q 1803 -78 1509 -78 
Q 1156 -78 914 31 
Q 672 141 523 323 
Q 375 506 309 745 
Q 244 984 244 1247 
Q 244 1528 306 1789 
Q 369 2050 483 2275 
Q 597 2500 756 2686 
Q 916 2872 1109 3003 
Q 1303 3134 1525 3206 
Q 1747 3278 1984 3278 
Q 2231 3278 2420 3212 
Q 2609 3147 2736 3033 
Q 2863 2919 2928 2769 
Q 2994 2619 2994 2450 
z
M 2472 2425 
Q 2472 2622 2326 2731 
Q 2181 2841 1941 2841 
Q 1750 2841 1572 2758 
Q 1394 2675 1244 2529 
Q 1094 2384 984 2182 
Q 875 1981 825 1747 
Q 1272 1747 1584 1792 
Q 1897 1838 2094 1925 
Q 2291 2013 2381 2139 
Q 2472 2266 2472 2425 
z
" transform="scale(0.015625)"/>
      <path id="SegoeUI-Italic-20" transform="scale(0.015625)"/>
      <path id="SegoeUI-Italic-b7" d="M 1106 1947 
Q 1106 1875 1079 1811 
Q 1053 1747 1006 1700 
Q 959 1653 898 1626 
Q 838 1600 769 1600 
Q 697 1600 633 1626 
Q 569 1653 522 1700 
Q 475 1747 448 1811 
Q 422 1875 422 1947 
Q 422 2016 448 2078 
Q 475 2141 522 2187 
Q 569 2234 631 2262 
Q 694 2291 763 2291 
Q 834 2291 896 2262 
Q 959 2234 1006 2187 
Q 1053 2141 1079 2078 
Q 1106 2016 1106 1947 
z
" transform="scale(0.015625)"/>
      <path id="SegoeUI-Italic-52" d="M 3653 3372 
Q 3653 3081 3551 2847 
Q 3450 2613 3272 2444 
Q 3094 2275 2847 2173 
Q 2600 2072 2309 2047 
L 2309 2034 
Q 2456 1988 2567 1838 
Q 2678 1688 2747 1434 
L 3122 0 
L 2547 0 
L 2216 1338 
Q 2144 1631 1986 1768 
Q 1828 1906 1569 1906 
L 1178 1906 
L 769 0 
L 231 0 
L 1178 4481 
L 2413 4481 
Q 2741 4481 2975 4393 
Q 3209 4306 3359 4154 
Q 3509 4003 3581 3801 
Q 3653 3600 3653 3372 
z
M 3103 3316 
Q 3103 3466 3056 3592 
Q 3009 3719 2912 3811 
Q 2816 3903 2666 3954 
Q 2516 4006 2309 4006 
L 1619 4006 
L 1275 2381 
L 1894 2381 
Q 2222 2381 2451 2459 
Q 2681 2538 2826 2666 
Q 2972 2794 3037 2964 
Q 3103 3134 3103 3316 
z
" transform="scale(0.015625)"/>
      <path id="SegoeUI-Italic-61" d="M 2828 1025 
Q 2803 906 2779 757 
Q 2756 609 2739 464 
Q 2722 319 2711 194 
Q 2700 69 2700 0 
L 2169 0 
Q 2172 63 2178 150 
Q 2184 238 2195 331 
Q 2206 425 2217 515 
Q 2228 606 2241 672 
L 2228 672 
Q 2131 519 2031 383 
Q 1931 247 1809 144 
Q 1688 41 1538 -18 
Q 1388 -78 1184 -78 
Q 975 -78 801 -3 
Q 628 72 503 220 
Q 378 369 311 592 
Q 244 816 244 1113 
Q 244 1294 281 1525 
Q 319 1756 408 1997 
Q 497 2238 645 2467 
Q 794 2697 1014 2878 
Q 1234 3059 1534 3168 
Q 1834 3278 2228 3278 
Q 2478 3278 2743 3240 
Q 3009 3203 3272 3150 
L 2828 1025 
z
M 2681 2778 
Q 2572 2803 2425 2822 
Q 2278 2841 2150 2841 
Q 1878 2841 1670 2755 
Q 1463 2669 1309 2530 
Q 1156 2391 1051 2209 
Q 947 2028 884 1839 
Q 822 1650 795 1465 
Q 769 1281 769 1131 
Q 769 953 800 811 
Q 831 669 898 569 
Q 966 469 1070 414 
Q 1175 359 1319 359 
Q 1475 359 1611 423 
Q 1747 488 1865 597 
Q 1984 706 2081 850 
Q 2178 994 2256 1155 
Q 2334 1316 2389 1483 
Q 2444 1650 2478 1806 
L 2681 2778 
z
" transform="scale(0.015625)"/>
      <path id="SegoeUI-Italic-6e" d="M 3269 2400 
Q 3269 2353 3258 2272 
Q 3247 2191 3230 2097 
Q 3213 2003 3195 1911 
Q 3178 1819 3163 1753 
L 2791 0 
L 2272 0 
L 2663 1875 
Q 2675 1925 2687 1990 
Q 2700 2056 2709 2122 
Q 2719 2188 2725 2242 
Q 2731 2297 2731 2328 
Q 2731 2566 2617 2703 
Q 2503 2841 2278 2841 
Q 2072 2841 1869 2719 
Q 1666 2597 1494 2409 
Q 1322 2222 1198 1997 
Q 1075 1772 1031 1563 
L 697 0 
L 178 0 
L 672 2284 
Q 697 2406 722 2539 
Q 747 2672 769 2795 
Q 791 2919 806 3025 
Q 822 3131 831 3200 
L 1331 3200 
Q 1316 3078 1294 2945 
Q 1272 2813 1256 2700 
Q 1238 2569 1216 2444 
L 1228 2444 
Q 1338 2616 1470 2767 
Q 1603 2919 1758 3033 
Q 1913 3147 2086 3212 
Q 2259 3278 2450 3278 
Q 2663 3278 2816 3214 
Q 2969 3150 3070 3034 
Q 3172 2919 3220 2756 
Q 3269 2594 3269 2400 
z
" transform="scale(0.015625)"/>
      <path id="SegoeUI-Italic-67" d="M 2656 231 
Q 2578 -144 2450 -461 
Q 2322 -778 2111 -1011 
Q 1900 -1244 1590 -1373 
Q 1281 -1503 838 -1503 
Q 531 -1503 304 -1431 
Q 78 -1359 -109 -1259 
L -13 -781 
Q 184 -900 406 -981 
Q 628 -1063 884 -1063 
Q 1163 -1063 1367 -981 
Q 1572 -900 1720 -742 
Q 1869 -584 1967 -356 
Q 2066 -128 2131 166 
L 2241 666 
L 2228 666 
Q 2109 475 1995 336 
Q 1881 197 1756 105 
Q 1631 13 1493 -32 
Q 1356 -78 1191 -78 
Q 975 -78 800 -1 
Q 625 75 501 225 
Q 378 375 311 600 
Q 244 825 244 1119 
Q 244 1397 305 1665 
Q 366 1934 481 2175 
Q 597 2416 764 2617 
Q 931 2819 1143 2966 
Q 1356 3113 1611 3195 
Q 1866 3278 2156 3278 
Q 2447 3278 2737 3240 
Q 3028 3203 3272 3156 
L 2656 231 
z
M 2681 2778 
Q 2575 2803 2423 2822 
Q 2272 2841 2100 2841 
Q 1806 2841 1562 2705 
Q 1319 2569 1142 2336 
Q 966 2103 867 1793 
Q 769 1484 769 1141 
Q 769 972 798 828 
Q 828 684 892 581 
Q 956 478 1057 418 
Q 1159 359 1306 359 
Q 1478 359 1623 431 
Q 1769 503 1891 622 
Q 2013 741 2108 892 
Q 2203 1044 2276 1203 
Q 2350 1363 2400 1517 
Q 2450 1672 2478 1797 
L 2681 2778 
z
" transform="scale(0.015625)"/>
      <path id="SegoeUI-Italic-41" d="M 3122 0 
L 2919 1253 
L 1019 1253 
L 294 0 
L -325 0 
L 2344 4481 
L 2894 4481 
L 3675 0 
L 3122 0 
z
M 2547 3634 
Q 2544 3666 2542 3706 
Q 2541 3747 2541 3788 
Q 2541 3831 2541 3869 
Q 2541 3909 2541 3938 
L 2528 3938 
Q 2519 3909 2503 3870 
Q 2488 3831 2469 3789 
Q 2450 3747 2429 3706 
Q 2409 3666 2394 3634 
L 1288 1728 
L 2834 1728 
L 2547 3634 
z
" transform="scale(0.015625)"/>
      <path id="SegoeUI-Italic-74" d="M 2156 2766 
L 1350 2766 
L 991 1069 
Q 972 972 953 859 
Q 934 747 934 678 
Q 934 519 1004 448 
Q 1075 378 1228 378 
Q 1266 378 1325 390 
Q 1384 403 1446 422 
Q 1509 441 1570 464 
Q 1631 488 1678 506 
L 1581 56 
Q 1472 9 1333 -23 
Q 1194 -56 1069 -56 
Q 891 -56 766 -11 
Q 641 34 561 118 
Q 481 203 445 323 
Q 409 444 409 594 
Q 409 684 426 804 
Q 444 925 469 1025 
L 838 2766 
L 306 2766 
L 403 3200 
L 928 3200 
L 1094 3981 
Q 1106 3988 1189 4011 
Q 1272 4034 1370 4064 
Q 1469 4094 1551 4119 
Q 1634 4144 1644 4147 
L 1447 3200 
L 2253 3200 
L 2156 2766 
z
" transform="scale(0.015625)"/>
      <path id="SegoeUI-Italic-63" d="M 2700 2566 
Q 2569 2681 2383 2761 
Q 2197 2841 1972 2841 
Q 1756 2841 1582 2766 
Q 1409 2691 1275 2566 
Q 1141 2441 1044 2278 
Q 947 2116 884 1941 
Q 822 1766 792 1592 
Q 763 1419 763 1269 
Q 763 822 959 590 
Q 1156 359 1497 359 
Q 1703 359 1925 445 
Q 2147 531 2344 666 
L 2234 153 
Q 2031 44 1829 -17 
Q 1628 -78 1403 -78 
Q 1109 -78 892 22 
Q 675 122 531 297 
Q 388 472 316 711 
Q 244 950 244 1228 
Q 244 1491 297 1745 
Q 350 2000 454 2226 
Q 559 2453 712 2647 
Q 866 2841 1064 2980 
Q 1263 3119 1506 3198 
Q 1750 3278 2034 3278 
Q 2169 3278 2291 3259 
Q 2413 3241 2513 3209 
Q 2613 3178 2691 3142 
Q 2769 3106 2816 3072 
L 2700 2566 
z
" transform="scale(0.015625)"/>
      <path id="SegoeUI-Italic-6b" d="M 1556 1722 
L 2688 0 
L 2094 0 
L 1044 1691 
L 1031 1691 
L 672 0 
L 153 0 
L 1166 4738 
L 1678 4738 
L 1063 1844 
L 1075 1844 
L 2669 3200 
L 3334 3200 
L 1556 1722 
z
" transform="scale(0.015625)"/>
      <path id="SegoeUI-Italic-6c" d="M 1300 13 
Q 1222 -13 1123 -28 
Q 1025 -44 928 -44 
Q 613 -44 456 114 
Q 300 272 300 538 
Q 300 616 315 722 
Q 331 828 366 984 
L 1166 4741 
L 1684 4741 
L 881 972 
Q 853 841 842 769 
Q 831 697 831 647 
Q 831 519 901 451 
Q 972 384 1125 384 
Q 1206 384 1267 393 
Q 1328 403 1381 422 
L 1300 13 
z
" transform="scale(0.015625)"/>
      <path id="SegoeUI-Italic-73" d="M 2266 2638 
Q 2125 2728 1950 2784 
Q 1775 2841 1600 2841 
Q 1306 2841 1145 2706 
Q 984 2572 984 2350 
Q 984 2259 1014 2184 
Q 1044 2109 1101 2042 
Q 1159 1975 1248 1912 
Q 1338 1850 1453 1778 
Q 1803 1575 1958 1361 
Q 2113 1147 2113 878 
Q 2113 697 2045 523 
Q 1978 350 1831 217 
Q 1684 84 1451 3 
Q 1219 -78 884 -78 
Q 791 -78 678 -65 
Q 566 -53 452 -28 
Q 338 -3 233 33 
Q 128 69 50 116 
L 153 603 
Q 216 559 308 515 
Q 400 472 508 437 
Q 616 403 733 381 
Q 850 359 966 359 
Q 1278 359 1433 484 
Q 1588 609 1588 831 
Q 1588 913 1564 981 
Q 1541 1050 1481 1119 
Q 1422 1188 1325 1258 
Q 1228 1328 1081 1416 
Q 763 1609 611 1820 
Q 459 2031 459 2297 
Q 459 2491 531 2667 
Q 603 2844 745 2980 
Q 888 3116 1103 3197 
Q 1319 3278 1606 3278 
Q 1831 3278 2032 3234 
Q 2234 3191 2375 3122 
L 2266 2638 
z
" transform="scale(0.015625)"/>
     </defs>
     <use xlink:href="#SegoeUI-Italic-43"/>
     <use xlink:href="#SegoeUI-Italic-75" transform="translate(63.916016 0)"/>
     <use xlink:href="#SegoeUI-Italic-72" transform="translate(119.726562 0)"/>
     <use xlink:href="#SegoeUI-Italic-76" transform="translate(157.224609 0)"/>
     <use xlink:href="#SegoeUI-Italic-65" transform="translate(204.289062 0)"/>
     <use xlink:href="#SegoeUI-Italic-20" transform="translate(252.970703 0)"/>
     <use xlink:href="#SegoeUI-Italic-b7" transform="translate(280.460938 0)"/>
     <use xlink:href="#SegoeUI-Italic-20" transform="translate(302.238281 0)"/>
     <use xlink:href="#SegoeUI-Italic-52" transform="translate(329.728516 0)"/>
     <use xlink:href="#SegoeUI-Italic-61" transform="translate(387.931641 0)"/>
     <use xlink:href="#SegoeUI-Italic-6e" transform="translate(442.130859 0)"/>
     <use xlink:href="#SegoeUI-Italic-67" transform="translate(498.332031 0)"/>
     <use xlink:href="#SegoeUI-Italic-65" transform="translate(552.53125 0)"/>
     <use xlink:href="#SegoeUI-Italic-20" transform="translate(601.212891 0)"/>
     <use xlink:href="#SegoeUI-Italic-b7" transform="translate(628.703125 0)"/>
     <use xlink:href="#SegoeUI-Italic-20" transform="translate(650.480469 0)"/>
     <use xlink:href="#SegoeUI-Italic-41" transform="translate(677.970703 0)"/>
     <use xlink:href="#SegoeUI-Italic-74" transform="translate(740.154297 0)"/>
     <use xlink:href="#SegoeUI-Italic-74" transform="translate(772.478516 0)"/>
     <use xlink:href="#SegoeUI-Italic-61" transform="translate(804.302734 0)"/>
     <use xlink:href="#SegoeUI-Italic-63" transform="translate(858.501953 0)"/>
     <use xlink:href="#SegoeUI-Italic-6b" transform="translate(902.105469 0)"/>
     <use xlink:href="#SegoeUI-Italic-20" transform="translate(951.128906 0)"/>
     <use xlink:href="#SegoeUI-Italic-b7" transform="translate(978.619141 0)"/>
     <use xlink:href="#SegoeUI-Italic-20" transform="translate(1000.396484 0)"/>
     <use xlink:href="#SegoeUI-Italic-52" transform="translate(1027.886719 0)"/>
     <use xlink:href="#SegoeUI-Italic-65" transform="translate(1083.589844 0)"/>
     <use xlink:href="#SegoeUI-Italic-6c" transform="translate(1132.271484 0)"/>
     <use xlink:href="#SegoeUI-Italic-65" transform="translate(1158.150391 0)"/>
     <use xlink:href="#SegoeUI-Italic-61" transform="translate(1206.832031 0)"/>
     <use xlink:href="#SegoeUI-Italic-73" transform="translate(1261.03125 0)"/>
     <use xlink:href="#SegoeUI-Italic-65" transform="translate(1299.533203 0)"/>
    </g>
   </g>
   <g id="text_21">
    <!-- Threshold Trigger -->
    <g style="fill: #27ae60" transform="translate(593.462891 274.977098) scale(0.09 -0.09)">
     <defs>
      <path id="SegoeUI-Bold-68" d="M 3488 0 
L 2503 0 
L 2503 1819 
Q 2503 2522 1991 2522 
Q 1728 2522 1565 2325 
Q 1403 2128 1403 1825 
L 1403 0 
L 416 0 
L 416 4738 
L 1403 4738 
L 1403 2725 
L 1416 2725 
Q 1778 3278 2400 3278 
Q 3488 3278 3488 1966 
L 3488 0 
z
" transform="scale(0.015625)"/>
      <path id="SegoeUI-Bold-65" d="M 3291 1319 
L 1203 1319 
Q 1253 622 2081 622 
Q 2609 622 3009 872 
L 3009 159 
Q 2566 -78 1856 -78 
Q 1081 -78 653 351 
Q 225 781 225 1550 
Q 225 2347 687 2812 
Q 1150 3278 1825 3278 
Q 2525 3278 2908 2862 
Q 3291 2447 3291 1734 
L 3291 1319 
z
M 2375 1925 
Q 2375 2613 1819 2613 
Q 1581 2613 1407 2416 
Q 1234 2219 1197 1925 
L 2375 1925 
z
" transform="scale(0.015625)"/>
      <path id="SegoeUI-Bold-73" d="M 206 84 
L 206 884 
Q 450 738 692 666 
Q 934 594 1150 594 
Q 1413 594 1564 666 
Q 1716 738 1716 884 
Q 1716 978 1647 1040 
Q 1578 1103 1470 1150 
Q 1363 1197 1234 1234 
Q 1106 1272 988 1319 
Q 797 1391 651 1473 
Q 506 1556 407 1665 
Q 309 1775 257 1919 
Q 206 2063 206 2259 
Q 206 2528 323 2722 
Q 441 2916 636 3039 
Q 831 3163 1082 3220 
Q 1334 3278 1606 3278 
Q 1819 3278 2037 3245 
Q 2256 3213 2469 3150 
L 2469 2388 
Q 2281 2497 2067 2551 
Q 1853 2606 1647 2606 
Q 1550 2606 1464 2589 
Q 1378 2572 1312 2539 
Q 1247 2506 1209 2454 
Q 1172 2403 1172 2338 
Q 1172 2250 1228 2187 
Q 1284 2125 1375 2079 
Q 1466 2034 1577 1998 
Q 1688 1963 1797 1925 
Q 1994 1856 2153 1775 
Q 2313 1694 2427 1584 
Q 2541 1475 2602 1328 
Q 2663 1181 2663 978 
Q 2663 694 2539 492 
Q 2416 291 2211 164 
Q 2006 38 1739 -20 
Q 1472 -78 1184 -78 
Q 656 -78 206 84 
z
" transform="scale(0.015625)"/>
      <path id="SegoeUI-Bold-6f" d="M 1941 -78 
Q 1141 -78 683 370 
Q 225 819 225 1588 
Q 225 2381 700 2829 
Q 1175 3278 1984 3278 
Q 2781 3278 3234 2829 
Q 3688 2381 3688 1644 
Q 3688 847 3220 384 
Q 2753 -78 1941 -78 
z
M 1966 2522 
Q 1616 2522 1422 2281 
Q 1228 2041 1228 1600 
Q 1228 678 1972 678 
Q 2681 678 2681 1625 
Q 2681 2522 1966 2522 
z
" transform="scale(0.015625)"/>
      <path id="SegoeUI-Bold-6c" d="M 1403 0 
L 416 0 
L 416 4738 
L 1403 4738 
L 1403 0 
z
" transform="scale(0.015625)"/>
      <path id="SegoeUI-Bold-64" d="M 3547 0 
L 2559 0 
L 2559 441 
L 2547 441 
Q 2209 -78 1556 -78 
Q 956 -78 590 345 
Q 225 769 225 1528 
Q 225 2322 628 2800 
Q 1031 3278 1684 3278 
Q 2303 3278 2547 2834 
L 2559 2834 
L 2559 4738 
L 3547 4738 
L 3547 0 
z
M 2578 1556 
L 2578 1797 
Q 2578 2109 2397 2315 
Q 2216 2522 1925 2522 
Q 1597 2522 1412 2264 
Q 1228 2006 1228 1556 
Q 1228 1134 1406 906 
Q 1584 678 1900 678 
Q 2200 678 2389 918 
Q 2578 1159 2578 1556 
z
" transform="scale(0.015625)"/>
     </defs>
     <use xlink:href="#SegoeUI-Bold-54"/>
     <use xlink:href="#SegoeUI-Bold-68" transform="translate(58.59375 0)"/>
     <use xlink:href="#SegoeUI-Bold-72" transform="translate(118.798828 0)"/>
     <use xlink:href="#SegoeUI-Bold-65" transform="translate(158.21875 0)"/>
     <use xlink:href="#SegoeUI-Bold-73" transform="translate(212.320312 0)"/>
     <use xlink:href="#SegoeUI-Bold-68" transform="translate(256.314453 0)"/>
     <use xlink:href="#SegoeUI-Bold-6f" transform="translate(316.519531 0)"/>
     <use xlink:href="#SegoeUI-Bold-6c" transform="translate(377.652344 0)"/>
     <use xlink:href="#SegoeUI-Bold-64" transform="translate(406.070312 0)"/>
     <use xlink:href="#SegoeUI-Bold-20" transform="translate(467.984375 0)"/>
     <use xlink:href="#SegoeUI-Bold-54" transform="translate(495.572266 0)"/>
     <use xlink:href="#SegoeUI-Bold-72" transform="translate(546.666016 0)"/>
     <use xlink:href="#SegoeUI-Bold-69" transform="translate(586.835938 0)"/>
     <use xlink:href="#SegoeUI-Bold-67" transform="translate(615.253906 0)"/>
     <use xlink:href="#SegoeUI-Bold-67" transform="translate(677.167969 0)"/>
     <use xlink:href="#SegoeUI-Bold-65" transform="translate(739.082031 0)"/>
     <use xlink:href="#SegoeUI-Bold-72" transform="translate(793.183594 0)"/>
    </g>
   </g>
   <g id="text_22">
    <!-- Gaze duration hits 3s → material dissolves -->
    <g style="fill: #555555" transform="translate(561.767187 298.566629) scale(0.075 -0.075)">
     <defs>
      <path id="SegoeUI-33" d="M 2978 1269 
Q 2978 966 2864 717 
Q 2750 469 2542 292 
Q 2334 116 2043 19 
Q 1753 -78 1403 -78 
Q 763 -78 384 166 
L 384 716 
Q 838 359 1422 359 
Q 1656 359 1845 418 
Q 2034 478 2170 590 
Q 2306 703 2379 862 
Q 2453 1022 2453 1222 
Q 2453 2100 1203 2100 
L 831 2100 
L 831 2534 
L 1184 2534 
Q 2291 2534 2291 3359 
Q 2291 4122 1447 4122 
Q 972 4122 556 3803 
L 556 4300 
Q 984 4556 1575 4556 
Q 1856 4556 2084 4478 
Q 2313 4400 2475 4259 
Q 2638 4119 2727 3922 
Q 2816 3725 2816 3488 
Q 2816 2603 1922 2350 
L 1922 2338 
Q 2150 2313 2344 2227 
Q 2538 2141 2678 2003 
Q 2819 1866 2898 1680 
Q 2978 1494 2978 1269 
z
" transform="scale(0.015625)"/>
     </defs>
     <use xlink:href="#SegoeUI-47"/>
     <use xlink:href="#SegoeUI-61" transform="translate(68.603516 0)"/>
     <use xlink:href="#SegoeUI-7a" transform="translate(119.482422 0)"/>
     <use xlink:href="#SegoeUI-65" transform="translate(164.697266 0)"/>
     <use xlink:href="#SegoeUI-20" transform="translate(216.992188 0)"/>
     <use xlink:href="#SegoeUI-64" transform="translate(244.384766 0)"/>
     <use xlink:href="#SegoeUI-75" transform="translate(303.271484 0)"/>
     <use xlink:href="#SegoeUI-72" transform="translate(359.863281 0)"/>
     <use xlink:href="#SegoeUI-61" transform="translate(394.628906 0)"/>
     <use xlink:href="#SegoeUI-74" transform="translate(445.507812 0)"/>
     <use xlink:href="#SegoeUI-69" transform="translate(479.394531 0)"/>
     <use xlink:href="#SegoeUI-6f" transform="translate(503.613281 0)"/>
     <use xlink:href="#SegoeUI-6e" transform="translate(562.207031 0)"/>
     <use xlink:href="#SegoeUI-20" transform="translate(618.798828 0)"/>
     <use xlink:href="#SegoeUI-68" transform="translate(646.191406 0)"/>
     <use xlink:href="#SegoeUI-69" transform="translate(702.783203 0)"/>
     <use xlink:href="#SegoeUI-74" transform="translate(727.001953 0)"/>
     <use xlink:href="#SegoeUI-73" transform="translate(760.888672 0)"/>
     <use xlink:href="#SegoeUI-20" transform="translate(803.320312 0)"/>
     <use xlink:href="#SegoeUI-33" transform="translate(830.712891 0)"/>
     <use xlink:href="#SegoeUI-73" transform="translate(884.619141 0)"/>
     <use xlink:href="#SegoeUI-20" transform="translate(927.050781 0)"/>
     <use xlink:href="#SegoeUI-2192" transform="translate(954.443359 0)"/>
     <use xlink:href="#SegoeUI-20" transform="translate(1040.722656 0)"/>
     <use xlink:href="#SegoeUI-6d" transform="translate(1068.115234 0)"/>
     <use xlink:href="#SegoeUI-61" transform="translate(1154.248047 0)"/>
     <use xlink:href="#SegoeUI-74" transform="translate(1205.126953 0)"/>
     <use xlink:href="#SegoeUI-65" transform="translate(1238.263672 0)"/>
     <use xlink:href="#SegoeUI-72" transform="translate(1290.558594 0)"/>
     <use xlink:href="#SegoeUI-69" transform="translate(1325.324219 0)"/>
     <use xlink:href="#SegoeUI-61" transform="translate(1349.542969 0)"/>
     <use xlink:href="#SegoeUI-6c" transform="translate(1400.421875 0)"/>
     <use xlink:href="#SegoeUI-20" transform="translate(1424.640625 0)"/>
     <use xlink:href="#SegoeUI-64" transform="translate(1452.033203 0)"/>
     <use xlink:href="#SegoeUI-69" transform="translate(1510.919922 0)"/>
     <use xlink:href="#SegoeUI-73" transform="translate(1535.138672 0)"/>
     <use xlink:href="#SegoeUI-73" transform="translate(1577.570312 0)"/>
     <use xlink:href="#SegoeUI-6f" transform="translate(1620.001953 0)"/>
     <use xlink:href="#SegoeUI-6c" transform="translate(1678.595703 0)"/>
     <use xlink:href="#SegoeUI-76" transform="translate(1702.814453 0)"/>
     <use xlink:href="#SegoeUI-65" transform="translate(1750.089844 0)"/>
     <use xlink:href="#SegoeUI-73" transform="translate(1802.384766 0)"/>
    </g>
   </g>
   <g id="text_23">
    <!-- Curve · Threshold · Duration -->
    <g style="fill: #888888" transform="translate(591.562539 350.081384) scale(0.065 -0.065)">
     <defs>
      <path id="SegoeUI-Italic-54" d="M 3719 4006 
L 2444 4006 
L 1600 0 
L 1063 0 
L 1913 4006 
L 609 4006 
L 709 4481 
L 3822 4481 
L 3719 4006 
z
" transform="scale(0.015625)"/>
      <path id="SegoeUI-Italic-68" d="M 3238 2394 
Q 3238 2353 3227 2270 
Q 3216 2188 3202 2094 
Q 3188 2000 3170 1908 
Q 3153 1816 3138 1753 
L 2766 0 
L 2247 0 
L 2638 1875 
Q 2650 1925 2662 1990 
Q 2675 2056 2684 2122 
Q 2694 2188 2700 2242 
Q 2706 2297 2706 2328 
Q 2706 2572 2595 2706 
Q 2484 2841 2253 2841 
Q 2053 2841 1853 2723 
Q 1653 2606 1481 2420 
Q 1309 2234 1182 2004 
Q 1056 1775 1006 1550 
L 672 0 
L 153 0 
L 1166 4738 
L 1678 4738 
L 1191 2450 
L 1203 2450 
Q 1319 2628 1456 2779 
Q 1594 2931 1748 3042 
Q 1903 3153 2073 3215 
Q 2244 3278 2425 3278 
Q 2825 3278 3031 3042 
Q 3238 2806 3238 2394 
z
" transform="scale(0.015625)"/>
      <path id="SegoeUI-Italic-6f" d="M 3181 2016 
Q 3181 1591 3061 1209 
Q 2941 828 2714 542 
Q 2488 256 2164 89 
Q 1841 -78 1434 -78 
Q 1159 -78 939 9 
Q 719 97 564 261 
Q 409 425 326 658 
Q 244 891 244 1184 
Q 244 1625 370 2008 
Q 497 2391 726 2673 
Q 956 2956 1276 3117 
Q 1597 3278 1984 3278 
Q 2256 3278 2476 3190 
Q 2697 3103 2853 2939 
Q 3009 2775 3095 2542 
Q 3181 2309 3181 2016 
z
M 2656 1991 
Q 2656 2194 2606 2351 
Q 2556 2509 2465 2617 
Q 2375 2725 2247 2783 
Q 2119 2841 1959 2841 
Q 1684 2841 1462 2700 
Q 1241 2559 1087 2329 
Q 934 2100 851 1808 
Q 769 1516 769 1209 
Q 769 1016 817 858 
Q 866 700 955 589 
Q 1044 478 1173 418 
Q 1303 359 1466 359 
Q 1744 359 1966 498 
Q 2188 638 2341 867 
Q 2494 1097 2575 1390 
Q 2656 1684 2656 1991 
z
" transform="scale(0.015625)"/>
      <path id="SegoeUI-Italic-64" d="M 2816 984 
Q 2794 884 2773 743 
Q 2753 603 2737 461 
Q 2722 319 2711 194 
Q 2700 69 2700 0 
L 2169 0 
Q 2169 53 2176 142 
Q 2184 231 2195 328 
Q 2206 425 2218 514 
Q 2231 603 2241 659 
L 2228 659 
Q 2116 478 2003 339 
Q 1891 200 1766 108 
Q 1641 16 1500 -31 
Q 1359 -78 1191 -78 
Q 972 -78 797 0 
Q 622 78 498 229 
Q 375 381 309 604 
Q 244 828 244 1119 
Q 244 1350 292 1600 
Q 341 1850 442 2090 
Q 544 2331 700 2547 
Q 856 2763 1072 2925 
Q 1288 3088 1566 3183 
Q 1844 3278 2188 3278 
Q 2363 3278 2513 3254 
Q 2663 3231 2772 3206 
L 3097 4738 
L 3603 4738 
L 2816 984 
z
M 2681 2766 
Q 2563 2800 2433 2820 
Q 2303 2841 2156 2841 
Q 1884 2841 1676 2756 
Q 1469 2672 1314 2531 
Q 1159 2391 1054 2211 
Q 950 2031 886 1842 
Q 822 1653 795 1470 
Q 769 1288 769 1141 
Q 769 966 798 822 
Q 828 678 895 575 
Q 963 472 1069 415 
Q 1175 359 1325 359 
Q 1481 359 1617 425 
Q 1753 491 1872 603 
Q 1991 716 2087 862 
Q 2184 1009 2262 1175 
Q 2341 1341 2395 1511 
Q 2450 1681 2484 1838 
L 2681 2766 
z
" transform="scale(0.015625)"/>
      <path id="SegoeUI-Italic-44" d="M 4378 2669 
Q 4378 2338 4311 2009 
Q 4244 1681 4105 1384 
Q 3966 1088 3747 834 
Q 3528 581 3225 395 
Q 2922 209 2530 104 
Q 2138 0 1650 0 
L 231 0 
L 1184 4481 
L 2431 4481 
Q 2869 4481 3228 4357 
Q 3588 4234 3842 4000 
Q 4097 3766 4237 3430 
Q 4378 3094 4378 2669 
z
M 3828 2631 
Q 3828 3288 3443 3647 
Q 3059 4006 2303 4006 
L 1619 4006 
L 863 475 
L 1697 475 
Q 2225 475 2623 644 
Q 3022 813 3289 1106 
Q 3556 1400 3692 1792 
Q 3828 2184 3828 2631 
z
" transform="scale(0.015625)"/>
      <path id="SegoeUI-Italic-69" d="M 1300 13 
Q 1222 -13 1123 -28 
Q 1025 -44 928 -44 
Q 613 -44 456 114 
Q 300 272 300 538 
Q 300 616 315 722 
Q 331 828 366 984 
L 831 3200 
L 1350 3200 
L 881 972 
Q 853 841 842 769 
Q 831 697 831 647 
Q 831 519 901 451 
Q 972 384 1125 384 
Q 1206 384 1267 393 
Q 1328 403 1381 422 
L 1300 13 
z
M 1666 4341 
Q 1666 4200 1570 4100 
Q 1475 4000 1334 4000 
Q 1197 4000 1095 4098 
Q 994 4197 994 4341 
Q 994 4484 1095 4575 
Q 1197 4666 1334 4666 
Q 1472 4666 1569 4573 
Q 1666 4481 1666 4341 
z
" transform="scale(0.015625)"/>
     </defs>
     <use xlink:href="#SegoeUI-Italic-43"/>
     <use xlink:href="#SegoeUI-Italic-75" transform="translate(63.916016 0)"/>
     <use xlink:href="#SegoeUI-Italic-72" transform="translate(119.726562 0)"/>
     <use xlink:href="#SegoeUI-Italic-76" transform="translate(157.224609 0)"/>
     <use xlink:href="#SegoeUI-Italic-65" transform="translate(204.289062 0)"/>
     <use xlink:href="#SegoeUI-Italic-20" transform="translate(252.970703 0)"/>
     <use xlink:href="#SegoeUI-Italic-b7" transform="translate(280.460938 0)"/>
     <use xlink:href="#SegoeUI-Italic-20" transform="translate(302.238281 0)"/>
     <use xlink:href="#SegoeUI-Italic-54" transform="translate(329.728516 0)"/>
     <use xlink:href="#SegoeUI-Italic-68" transform="translate(382.316406 0)"/>
     <use xlink:href="#SegoeUI-Italic-72" transform="translate(438.029297 0)"/>
     <use xlink:href="#SegoeUI-Italic-65" transform="translate(473.652344 0)"/>
     <use xlink:href="#SegoeUI-Italic-73" transform="translate(522.333984 0)"/>
     <use xlink:href="#SegoeUI-Italic-68" transform="translate(561.835938 0)"/>
     <use xlink:href="#SegoeUI-Italic-6f" transform="translate(617.548828 0)"/>
     <use xlink:href="#SegoeUI-Italic-6c" transform="translate(671.064453 0)"/>
     <use xlink:href="#SegoeUI-Italic-64" transform="translate(696.943359 0)"/>
     <use xlink:href="#SegoeUI-Italic-20" transform="translate(751.142578 0)"/>
     <use xlink:href="#SegoeUI-Italic-b7" transform="translate(778.632812 0)"/>
     <use xlink:href="#SegoeUI-Italic-20" transform="translate(800.410156 0)"/>
     <use xlink:href="#SegoeUI-Italic-44" transform="translate(827.900391 0)"/>
     <use xlink:href="#SegoeUI-Italic-75" transform="translate(899.091797 0)"/>
     <use xlink:href="#SegoeUI-Italic-72" transform="translate(954.902344 0)"/>
     <use xlink:href="#SegoeUI-Italic-61" transform="translate(989.775391 0)"/>
     <use xlink:href="#SegoeUI-Italic-74" transform="translate(1043.974609 0)"/>
     <use xlink:href="#SegoeUI-Italic-69" transform="translate(1076.298828 0)"/>
     <use xlink:href="#SegoeUI-Italic-6f" transform="translate(1102.177734 0)"/>
     <use xlink:href="#SegoeUI-Italic-6e" transform="translate(1155.693359 0)"/>
    </g>
   </g>
   <g id="text_24">
    <!-- Switch -->
    <g style="fill: #f39c12" transform="translate(367.501406 387.891384) scale(0.09 -0.09)">
     <defs>
      <path id="SegoeUI-Bold-77" d="M 5050 3200 
L 4128 0 
L 3091 0 
L 2619 1875 
Q 2572 2063 2566 2284 
L 2547 2284 
Q 2525 2041 2484 1888 
L 1978 0 
L 953 0 
L 50 3200 
L 1056 3200 
L 1497 1113 
Q 1528 966 1544 756 
L 1563 756 
Q 1578 975 1619 1125 
L 2169 3200 
L 3109 3200 
L 3603 1113 
Q 3622 1034 3647 750 
L 3669 750 
Q 3684 931 3719 1113 
L 4134 3200 
L 5050 3200 
z
" transform="scale(0.015625)"/>
      <path id="SegoeUI-Bold-74" d="M 2350 38 
Q 2131 -78 1691 -78 
Q 647 -78 647 1006 
L 647 2472 
L 128 2472 
L 128 3200 
L 647 3200 
L 647 3891 
L 1631 4172 
L 1631 3200 
L 2350 3200 
L 2350 2472 
L 1631 2472 
L 1631 1178 
Q 1631 678 2028 678 
Q 2184 678 2350 769 
L 2350 38 
z
" transform="scale(0.015625)"/>
     </defs>
     <use xlink:href="#SegoeUI-Bold-53"/>
     <use xlink:href="#SegoeUI-Bold-77" transform="translate(55.054688 0)"/>
     <use xlink:href="#SegoeUI-Bold-69" transform="translate(134.791016 0)"/>
     <use xlink:href="#SegoeUI-Bold-74" transform="translate(163.208984 0)"/>
     <use xlink:href="#SegoeUI-Bold-63" transform="translate(201.75 0)"/>
     <use xlink:href="#SegoeUI-Bold-68" transform="translate(249.748047 0)"/>
    </g>
   </g>
   <g id="text_25">
    <!-- Enter zone → Light ON / OFF -->
    <g style="fill: #555555" transform="translate(333.689648 411.480915) scale(0.075 -0.075)">
     <defs>
      <path id="SegoeUI-4e" d="M 4200 0 
L 3556 0 
L 1250 3572 
Q 1163 3706 1106 3853 
L 1088 3853 
Q 1113 3709 1113 3238 
L 1113 0 
L 588 0 
L 588 4481 
L 1269 4481 
L 3513 966 
Q 3653 747 3694 666 
L 3706 666 
Q 3675 859 3675 1325 
L 3675 4481 
L 4200 4481 
L 4200 0 
z
" transform="scale(0.015625)"/>
      <path id="SegoeUI-2f" d="M 2541 4481 
L 391 -744 
L -88 -744 
L 2056 4481 
L 2541 4481 
z
" transform="scale(0.015625)"/>
      <path id="SegoeUI-46" d="M 2863 4006 
L 1113 4006 
L 1113 2456 
L 2731 2456 
L 2731 1984 
L 1113 1984 
L 1113 0 
L 588 0 
L 588 4481 
L 2863 4481 
L 2863 4006 
z
" transform="scale(0.015625)"/>
     </defs>
     <use xlink:href="#SegoeUI-45"/>
     <use xlink:href="#SegoeUI-6e" transform="translate(50.585938 0)"/>
     <use xlink:href="#SegoeUI-74" transform="translate(107.177734 0)"/>
     <use xlink:href="#SegoeUI-65" transform="translate(140.314453 0)"/>
     <use xlink:href="#SegoeUI-72" transform="translate(192.609375 0)"/>
     <use xlink:href="#SegoeUI-20" transform="translate(227.375 0)"/>
     <use xlink:href="#SegoeUI-7a" transform="translate(254.767578 0)"/>
     <use xlink:href="#SegoeUI-6f" transform="translate(299.982422 0)"/>
     <use xlink:href="#SegoeUI-6e" transform="translate(358.576172 0)"/>
     <use xlink:href="#SegoeUI-65" transform="translate(415.167969 0)"/>
     <use xlink:href="#SegoeUI-20" transform="translate(467.462891 0)"/>
     <use xlink:href="#SegoeUI-2192" transform="translate(494.855469 0)"/>
     <use xlink:href="#SegoeUI-20" transform="translate(581.134766 0)"/>
     <use xlink:href="#SegoeUI-4c" transform="translate(608.527344 0)"/>
     <use xlink:href="#SegoeUI-69" transform="translate(655.597656 0)"/>
     <use xlink:href="#SegoeUI-67" transform="translate(679.816406 0)"/>
     <use xlink:href="#SegoeUI-68" transform="translate(738.703125 0)"/>
     <use xlink:href="#SegoeUI-74" transform="translate(795.294922 0)"/>
     <use xlink:href="#SegoeUI-20" transform="translate(829.181641 0)"/>
     <use xlink:href="#SegoeUI-4f" transform="translate(856.574219 0)"/>
     <use xlink:href="#SegoeUI-4e" transform="translate(931.964844 0)"/>
     <use xlink:href="#SegoeUI-20" transform="translate(1006.769531 0)"/>
     <use xlink:href="#SegoeUI-2f" transform="translate(1034.162109 0)"/>
     <use xlink:href="#SegoeUI-20" transform="translate(1073.126953 0)"/>
     <use xlink:href="#SegoeUI-4f" transform="translate(1100.519531 0)"/>
     <use xlink:href="#SegoeUI-46" transform="translate(1175.910156 0)"/>
     <use xlink:href="#SegoeUI-46" transform="translate(1224.738281 0)"/>
    </g>
   </g>
   <g id="text_26">
    <!-- Attack · Release -->
    <g style="fill: #888888" transform="translate(359.665859 462.99567) scale(0.065 -0.065)">
     <use xlink:href="#SegoeUI-Italic-41"/>
     <use xlink:href="#SegoeUI-Italic-74" transform="translate(62.183594 0)"/>
     <use xlink:href="#SegoeUI-Italic-74" transform="translate(94.507812 0)"/>
     <use xlink:href="#SegoeUI-Italic-61" transform="translate(126.332031 0)"/>
     <use xlink:href="#SegoeUI-Italic-63" transform="translate(180.53125 0)"/>
     <use xlink:href="#SegoeUI-Italic-6b" transform="translate(224.134766 0)"/>
     <use xlink:href="#SegoeUI-Italic-20" transform="translate(273.158203 0)"/>
     <use xlink:href="#SegoeUI-Italic-b7" transform="translate(300.648438 0)"/>
     <use xlink:href="#SegoeUI-Italic-20" transform="translate(322.425781 0)"/>
     <use xlink:href="#SegoeUI-Italic-52" transform="translate(349.916016 0)"/>
     <use xlink:href="#SegoeUI-Italic-65" transform="translate(405.619141 0)"/>
     <use xlink:href="#SegoeUI-Italic-6c" transform="translate(454.300781 0)"/>
     <use xlink:href="#SegoeUI-Italic-65" transform="translate(480.179688 0)"/>
     <use xlink:href="#SegoeUI-Italic-61" transform="translate(528.861328 0)"/>
     <use xlink:href="#SegoeUI-Italic-73" transform="translate(583.060547 0)"/>
     <use xlink:href="#SegoeUI-Italic-65" transform="translate(621.5625 0)"/>
    </g>
   </g>
   <g id="text_27">
    <!-- One-Shot -->
    <g style="fill: #e74c3c" transform="translate(610.825859 387.891384) scale(0.09 -0.09)">
     <defs>
      <path id="SegoeUI-Bold-2d" d="M 2156 1363 
L 447 1363 
L 447 2053 
L 2156 2053 
L 2156 1363 
z
" transform="scale(0.015625)"/>
     </defs>
     <use xlink:href="#SegoeUI-Bold-4f"/>
     <use xlink:href="#SegoeUI-Bold-6e" transform="translate(75.830078 0)"/>
     <use xlink:href="#SegoeUI-Bold-65" transform="translate(136.328125 0)"/>
     <use xlink:href="#SegoeUI-Bold-2d" transform="translate(190.429688 0)"/>
     <use xlink:href="#SegoeUI-Bold-53" transform="translate(230.859375 0)"/>
     <use xlink:href="#SegoeUI-Bold-68" transform="translate(286.914062 0)"/>
     <use xlink:href="#SegoeUI-Bold-6f" transform="translate(347.119141 0)"/>
     <use xlink:href="#SegoeUI-Bold-74" transform="translate(408.251953 0)"/>
    </g>
   </g>
   <g id="text_28">
    <!-- Button press → play animation -->
    <g style="fill: #555555" transform="translate(580.489062 411.480915) scale(0.075 -0.075)">
     <use xlink:href="#SegoeUI-42"/>
     <use xlink:href="#SegoeUI-75" transform="translate(57.324219 0)"/>
     <use xlink:href="#SegoeUI-74" transform="translate(113.916016 0)"/>
     <use xlink:href="#SegoeUI-74" transform="translate(147.802734 0)"/>
     <use xlink:href="#SegoeUI-6f" transform="translate(180.939453 0)"/>
     <use xlink:href="#SegoeUI-6e" transform="translate(239.533203 0)"/>
     <use xlink:href="#SegoeUI-20" transform="translate(296.125 0)"/>
     <use xlink:href="#SegoeUI-70" transform="translate(323.517578 0)"/>
     <use xlink:href="#SegoeUI-72" transform="translate(382.306641 0)"/>
     <use xlink:href="#SegoeUI-65" transform="translate(415.697266 0)"/>
     <use xlink:href="#SegoeUI-73" transform="translate(467.992188 0)"/>
     <use xlink:href="#SegoeUI-73" transform="translate(510.423828 0)"/>
     <use xlink:href="#SegoeUI-20" transform="translate(552.855469 0)"/>
     <use xlink:href="#SegoeUI-2192" transform="translate(580.248047 0)"/>
     <use xlink:href="#SegoeUI-20" transform="translate(666.527344 0)"/>
     <use xlink:href="#SegoeUI-70" transform="translate(693.919922 0)"/>
     <use xlink:href="#SegoeUI-6c" transform="translate(752.708984 0)"/>
     <use xlink:href="#SegoeUI-61" transform="translate(776.927734 0)"/>
     <use xlink:href="#SegoeUI-79" transform="translate(827.806641 0)"/>
     <use xlink:href="#SegoeUI-20" transform="translate(876.195312 0)"/>
     <use xlink:href="#SegoeUI-61" transform="translate(903.587891 0)"/>
     <use xlink:href="#SegoeUI-6e" transform="translate(954.466797 0)"/>
     <use xlink:href="#SegoeUI-69" transform="translate(1011.058594 0)"/>
     <use xlink:href="#SegoeUI-6d" transform="translate(1035.277344 0)"/>
     <use xlink:href="#SegoeUI-61" transform="translate(1121.410156 0)"/>
     <use xlink:href="#SegoeUI-74" transform="translate(1172.289062 0)"/>
     <use xlink:href="#SegoeUI-69" transform="translate(1206.175781 0)"/>
     <use xlink:href="#SegoeUI-6f" transform="translate(1230.394531 0)"/>
     <use xlink:href="#SegoeUI-6e" transform="translate(1288.988281 0)"/>
    </g>
   </g>
   <g id="text_29">
    <!-- Curve · Duration -->
    <g style="fill: #888888" transform="translate(607.753633 462.99567) scale(0.065 -0.065)">
     <use xlink:href="#SegoeUI-Italic-43"/>
     <use xlink:href="#SegoeUI-Italic-75" transform="translate(63.916016 0)"/>
     <use xlink:href="#SegoeUI-Italic-72" transform="translate(119.726562 0)"/>
     <use xlink:href="#SegoeUI-Italic-76" transform="translate(157.224609 0)"/>
     <use xlink:href="#SegoeUI-Italic-65" transform="translate(204.289062 0)"/>
     <use xlink:href="#SegoeUI-Italic-20" transform="translate(252.970703 0)"/>
     <use xlink:href="#SegoeUI-Italic-b7" transform="translate(280.460938 0)"/>
     <use xlink:href="#SegoeUI-Italic-20" transform="translate(302.238281 0)"/>
     <use xlink:href="#SegoeUI-Italic-44" transform="translate(329.728516 0)"/>
     <use xlink:href="#SegoeUI-Italic-75" transform="translate(400.919922 0)"/>
     <use xlink:href="#SegoeUI-Italic-72" transform="translate(456.730469 0)"/>
     <use xlink:href="#SegoeUI-Italic-61" transform="translate(491.603516 0)"/>
     <use xlink:href="#SegoeUI-Italic-74" transform="translate(545.802734 0)"/>
     <use xlink:href="#SegoeUI-Italic-69" transform="translate(578.126953 0)"/>
     <use xlink:href="#SegoeUI-Italic-6f" transform="translate(604.005859 0)"/>
     <use xlink:href="#SegoeUI-Italic-6e" transform="translate(657.521484 0)"/>
    </g>
   </g>
   <g id="patch_15">
    <path d="M 526.621112 206.550718 
Q 516.893538 224.205907 507.975266 240.392242 
" style="fill: none; stroke: #bdc3c7; stroke-width: 1.5; stroke-linecap: round"/>
    <path d="M 511.657274 237.853971 
L 507.975266 240.392242 
L 508.153854 235.923674 
" style="fill: none; stroke: #bdc3c7; stroke-width: 1.5; stroke-linecap: round"/>
   </g>
  </g>
 </g>
 <defs>
  <clipPath id="pe7c706b249">
   <rect x="7.2" y="7.2" width="998" height="494"/>
  </clipPath>
 </defs>
</svg>
